<?xml version="1.0" encoding="UTF-8" standalone="no"?>
<!-- Created with Inkscape (http://www.inkscape.org/) -->

<svg
   width="172.78728mm"
   height="100.8521mm"
   viewBox="0 0 172.78728 100.8521"
   version="1.1"
   id="svg1"
   xml:space="preserve"
   xmlns:xlink="http://www.w3.org/1999/xlink"
   xmlns="http://www.w3.org/2000/svg"
   xmlns:svg="http://www.w3.org/2000/svg"><defs
     id="defs1"><linearGradient
       id="linearGradient50"><stop
         style="stop-color:#c13e3e;stop-opacity:1;"
         offset="0"
         id="stop50" /><stop
         style="stop-color:#7b0000;stop-opacity:1;"
         offset="1"
         id="stop51" /></linearGradient><linearGradient
       xlink:href="#linearGradient50"
       id="linearGradient51"
       x1="134.73264"
       y1="110.32492"
       x2="134.73264"
       y2="185.33188"
       gradientUnits="userSpaceOnUse" /></defs><g
     id="layer1"
     transform="translate(-26.044752,-87.962164)"><g
       id="g35"><path
         id="path41"
         style="fill:#000000;fill-opacity:1;stroke-width:0.119417"
         d="m 471.05273,487.08398 c -0.16232,-0.009 -0.32493,0.003 -0.48828,0.0391 -0.4359,0.0969 -0.85798,0.35017 -1.25195,0.74414 -0.43271,0.4327 -0.72952,0.88018 -0.90625,1.45117 -0.17673,0.57099 -0.23915,1.25667 -0.24219,2.20117 -0.004,1.29165 0.0482,1.75808 0.27539,2.48047 0.36821,1.17078 0.95167,2.04608 1.71094,2.43359 0.33295,0.16994 0.53714,0.28613 0.79883,0.27149 0.26169,-0.0146 0.45153,-0.15242 0.77148,-0.35938 0.83617,-0.54084 1.5639,-1.35591 1.96289,-2.21093 0.30554,-0.65475 0.35648,-0.94616 0.35547,-2.07618 -0.001,-0.91963 -0.0642,-1.48271 -0.23828,-1.99414 -0.35553,-1.04434 -0.82197,-1.8355 -1.37305,-2.34765 -0.4133,-0.38412 -0.88801,-0.60675 -1.375,-0.63282 z"
         transform="matrix(0.26458333,0,0,0.26458333,-0.59129101,-20.072147)" /><path
         id="path42"
         style="fill:#000000;fill-opacity:1;stroke-width:0.119417"
         d="m 441.11719,487.15234 c -0.15976,-0.006 -0.31622,0.0218 -0.46289,0.0859 -0.58662,0.25668 -0.95135,0.96245 -1.28125,2.0625 -0.1668,0.55676 -0.2375,1.41813 -0.23828,2.28711 -7.9e-4,0.86898 0.0674,1.72341 0.23437,2.27148 0.3429,1.12566 1.0549,2.08043 1.93555,2.53907 a 0.25942705,0.25942705 0 0 0 0.006,0.002 c 0.32119,0.16618 0.62054,0.25521 0.92382,0.17773 0.3046,-0.0778 0.55541,-0.2896 0.86329,-0.61132 1.34314,-1.40358 1.65675,-3.12917 0.99414,-5.29883 -0.36243,-1.18675 -0.79826,-1.96037 -1.52344,-2.68555 -0.33861,-0.33861 -0.65391,-0.58086 -0.9707,-0.7168 -0.1584,-0.068 -0.32071,-0.1075 -0.48047,-0.11328 z"
         transform="matrix(0.26458333,0,0,0.26458333,-0.59129101,-20.072147)" /><path
         id="path44"
         style="fill:#ffffff;fill-opacity:1;stroke-width:0.675524"
         d="m 274.19727,667.875 c -1.07677,-0.21095 -2.14598,0.14517 -2.92383,0.94336 -0.77785,0.79819 -1.32979,1.97738 -1.7461,3.52344 -0.17678,0.65653 -0.45988,1.28955 -0.75586,1.75195 -0.29597,0.4624 -0.64951,0.71894 -0.67968,0.72852 -0.58122,0.18446 -1.12055,0.59895 -1.83399,1.16992 -0.71343,0.57096 -1.5136,1.29278 -2.24804,2.04492 -2.16201,2.21409 -2.84135,3.60897 -3.10938,6.39844 -0.76234,7.93373 3.77094,16.00791 10.36523,18.07031 6.98398,2.18428 14.80919,-0.93838 17.11329,-7.01953 1.46594,-3.86905 0.90692,-8.41895 -0.92774,-12.29102 -1.83466,-3.87207 -4.96407,-7.10943 -8.82226,-8.24414 -1.56542,-0.46039 -2.22812,-0.73362 -2.41016,-0.95703 -0.091,-0.1117 -0.15624,-0.26072 -0.19922,-0.62109 -0.043,-0.36038 -0.0469,-0.89807 -0.0469,-1.62891 0,-1.17627 -0.0471,-1.97621 -0.29688,-2.63281 -0.24978,-0.65661 -0.85459,-1.11411 -1.47851,-1.23633 z"
         transform="matrix(0.26458333,0,0,0.26458333,-0.59129101,-20.072147)" /><path
         id="path45"
         style="fill:#0e101c;fill-opacity:1;stroke-width:0.168881"
         d="m 496.57812,577.68555 c -0.18383,0.0353 -0.35557,0.11114 -0.51171,0.24023 -0.31229,0.25819 -0.55363,0.69556 -0.77735,1.36914 -0.44742,1.34717 -0.82096,3.67015 -1.31445,7.54492 -0.14774,1.16 -0.2951,2.22996 -0.41406,3.01758 -0.0595,0.39381 -0.11309,0.71783 -0.1543,0.94531 -0.0206,0.11375 -0.0388,0.20318 -0.0527,0.26368 -0.001,0.006 -0.003,0.008 -0.004,0.0137 -0.003,4.1e-4 -0.003,0.002 -0.006,0.002 -0.0591,0.008 -0.14928,0.0167 -0.26367,0.0254 -0.22879,0.0174 -0.55622,0.0356 -0.95508,0.0508 -0.79772,0.0304 -1.88362,0.053 -3.0625,0.0625 -3.63885,0.0294 -4.47107,-0.0124 -5.60352,-0.27148 -1.87661,-0.42929 -3.77333,-1.19538 -4.97656,-2.00195 -0.77633,-0.52042 -1.21738,-0.94096 -1.52344,-1.66211 -0.30605,-0.72116 -0.47204,-1.76032 -0.63867,-3.47852 -0.1959,-2.02012 -0.38964,-3.29431 -0.6875,-4.07812 -0.14893,-0.39191 -0.32658,-0.66777 -0.56054,-0.8379 -0.23397,-0.17012 -0.51605,-0.21797 -0.81641,-0.18359 -0.21437,0.0245 -0.40529,0.10056 -0.56445,0.25977 -0.15916,0.15921 -0.29161,0.38641 -0.46289,0.73047 -0.19231,0.38629 -0.30845,0.68704 -0.37696,1.16015 -0.0685,0.47311 -0.095,1.11799 -0.12304,2.23828 -0.0232,0.9259 -0.0542,1.55709 -0.0996,1.9668 -0.0227,0.20486 -0.0481,0.35508 -0.0762,0.45312 -0.0281,0.098 -0.0605,0.13864 -0.0605,0.13868 -0.0595,0.0494 -0.11672,0.10621 -0.14844,0.1875 -0.0317,0.0813 -0.0269,0.17585 0.002,0.25781 0.0577,0.16392 0.1851,0.31561 0.39844,0.55859 0.13006,0.14813 0.2506,0.32618 0.33594,0.48438 0.0853,0.1582 0.1289,0.30897 0.1289,0.3457 0,0.19572 -0.0979,0.40429 -0.25195,0.56055 -0.15405,0.15626 -0.35795,0.2539 -0.54883,0.2539 -0.10108,0 -0.18628,-0.005 -0.2832,0.0293 -0.0969,0.0338 -0.18501,0.13584 -0.21289,0.24219 -0.0558,0.2127 -0.0174,0.48608 0.0352,1.04687 0.0117,0.1253 0.0277,0.79694 0.043,1.8418 0.0153,1.04486 0.0308,2.48337 0.0449,4.20898 0.0283,3.45123 0.0528,8.05394 0.0664,12.97657 0.0454,16.51858 0.11748,20.28811 0.60352,30.99609 0.17042,3.75458 0.35848,6.62969 0.56836,8.69727 0.20987,2.06758 0.42646,3.30794 0.7207,3.87695 0.0759,0.14673 0.14937,0.26488 0.23047,0.35547 0.0811,0.0906 0.17389,0.16009 0.29101,0.17773 0.11713,0.0177 0.23497,-0.0347 0.31641,-0.11523 0.0815,-0.0805 0.14338,-0.18779 0.20117,-0.32227 0.23116,-0.53791 0.40164,-1.56352 0.55664,-3.15429 0.16173,-1.65934 0.20329,-7.55409 0.17578,-23.79297 -0.0191,-11.29808 0.0119,-19.72116 0.0937,-25.37305 0.041,-2.82594 0.0936,-4.95951 0.16016,-6.41211 0.0333,-0.7263 0.0701,-1.28139 0.10938,-1.66601 0.0196,-0.19232 0.0406,-0.34225 0.0605,-0.44532 0.02,-0.10306 0.0602,-0.17158 0.0312,-0.13672 0.0447,-0.0539 0.10436,-0.0885 0.23828,-0.10546 0.13393,-0.017 0.33635,-0.006 0.61914,0.0469 0.5656,0.10609 1.44787,0.37191 2.79493,0.82813 3.62473,1.22762 5.0877,1.45968 9.96289,1.57617 l 4.06445,0.0976 0.0996,12.25391 c 0.0285,3.48073 0.0759,6.83415 0.12891,9.47852 0.053,2.64436 0.11188,4.56954 0.16796,5.22656 0.46769,5.47892 0.86923,8.73541 1.71485,13.86133 1.16027,7.03311 1.88653,12.45085 2.19531,16.36914 0.19148,2.4299 0.49981,4.09578 0.94922,4.96484 0.10493,0.20291 0.21255,0.35528 0.36328,0.45508 0.15074,0.0998 0.32959,0.13476 0.53711,0.13476 0.28333,0 0.54205,-0.0847 0.74805,-0.26757 0.20599,-0.18282 0.35617,-0.4531 0.46875,-0.8125 0.22514,-0.71882 0.3101,-1.81289 0.30859,-3.43164 -0.003,-3.00625 -0.29955,-5.66633 -1.36719,-12.22852 -1.54425,-9.4917 -2.25037,-16.36312 -2.69531,-26.24414 -0.0688,-1.52687 -0.23902,-6.51202 -0.39062,-11.27539 -0.15161,-4.76337 -0.28477,-9.32423 -0.28516,-9.94922 0,-0.007 0.0291,-0.0837 0.15625,-0.18164 0.12712,-0.0979 0.33114,-0.21179 0.60156,-0.32813 l 0.85742,-0.36718 a 0.16360844,0.16360844 0 0 0 0,-0.30078 l -0.50586,-0.21485 a 0.16360844,0.16360844 0 0 0 -0.002,0 c -0.38543,-0.16207 -0.55479,-0.29675 -0.64453,-0.59765 -0.0897,-0.30091 -0.0755,-0.80498 0.0273,-1.63868 0.10012,-0.81181 0.29558,-2.77067 0.43555,-4.36328 0.21128,-2.40406 0.2923,-3.98146 0.2168,-4.99609 -0.0378,-0.50732 -0.11338,-0.87368 -0.24414,-1.14258 -0.13077,-0.26889 -0.33799,-0.43895 -0.58399,-0.48633 -0.2004,-0.0386 -0.39624,-0.045 -0.58008,-0.01 z"
         transform="matrix(0.26458333,0,0,0.26458333,-0.59129101,-20.072147)" /><path
         id="path39"
         style="display:inline;fill:#efb9b8"
         d="m 130.00586,101.02539 c -0.21612,0.009 -0.45486,0.0384 -0.7207,0.0879 -0.7089,0.13187 -1.60652,0.40193 -2.75196,0.78516 -4.06179,1.35896 -8.49136,1.76084 -11.36718,1.03906 -0.1608,-0.0404 -0.2825,-0.071 -0.38477,-0.0664 -0.10227,0.005 -0.18575,0.0571 -0.23242,0.15821 -0.0934,0.20231 -0.0898,0.59292 -0.0898,1.36914 0,0.75684 0.004,1.15551 0.10547,1.39844 0.051,0.12146 0.13018,0.20241 0.23828,0.25781 0.10811,0.0554 0.24344,0.0878 0.41797,0.125 1.15533,0.24626 2.40223,1.15886 2.83594,2.06836 0.19157,0.40171 0.32268,0.62929 0.56641,0.75195 0.24372,0.12266 0.58243,0.13477 1.1914,0.13477 0.50924,0 0.84787,-0.0236 1.08008,-0.0977 0.23221,-0.0741 0.3575,-0.20596 0.41797,-0.39649 0.14843,-0.46765 0.51902,-0.97508 0.98242,-1.39843 0.4634,-0.42335 1.02054,-0.76272 1.53906,-0.90235 0.87487,-0.23558 1.26851,-0.20999 2.20704,0.14844 0.52782,0.20158 1.14177,0.64782 1.62109,1.12305 0.23966,0.23761 0.44666,0.48264 0.5918,0.70703 0.14513,0.22438 0.22851,0.4282 0.22851,0.57617 0,0.0202 0.009,0.0427 0.0234,0.0566 0.0144,0.0139 0.0309,0.0206 0.0488,0.0254 0.0358,0.01 0.0779,0.0105 0.13086,0.006 0.10597,-0.009 0.25251,-0.0411 0.43359,-0.0918 0.36217,-0.10136 0.85989,-0.27906 1.40625,-0.50976 0.74807,-0.31586 1.23362,-0.55043 1.52149,-0.74609 0.14393,-0.0978 0.23829,-0.18576 0.29101,-0.27539 0.0527,-0.0896 0.0599,-0.1838 0.0234,-0.26954 -0.0191,-0.045 -0.0481,-0.16163 -0.0762,-0.32422 -0.0281,-0.16258 -0.0582,-0.37426 -0.0879,-0.61718 -0.0593,-0.48586 -0.11826,-1.10209 -0.16211,-1.73047 -0.0979,-1.40352 -0.24089,-2.3227 -0.63868,-2.85352 -0.19889,-0.2654 -0.46304,-0.4315 -0.80859,-0.50195 -0.17277,-0.0352 -0.36591,-0.046 -0.58203,-0.0371 z m 7.55469,4.98047 c -0.47967,-4.1e-4 -0.81097,0.0359 -1.10938,0.16602 -0.29841,0.1301 -0.5591,0.35012 -0.90625,0.71093 -0.4604,0.47854 -0.9683,1.10078 -1.13867,1.39844 -0.0706,0.12333 -0.1277,0.21449 -0.17969,0.27344 -0.052,0.059 -0.0949,0.0847 -0.15234,0.0898 -0.11487,0.0103 -0.30889,-0.0833 -0.66797,-0.28711 -0.36559,-0.20749 -0.59122,-0.31281 -0.94922,-0.25976 -0.358,0.053 -0.84371,0.25665 -1.76367,0.65429 -0.52788,0.22817 -1.00749,0.46508 -1.35742,0.66407 -0.17497,0.0995 -0.31754,0.19006 -0.41797,0.26562 -0.0502,0.0378 -0.0902,0.072 -0.11914,0.10352 -0.029,0.0315 -0.05,0.06 -0.0508,0.0996 -0.001,0.0613 -0.034,0.24152 -0.084,0.46679 -0.05,0.22527 -0.11842,0.4997 -0.19336,0.76953 -0.32609,1.17414 -1.01224,2.04896 -1.88086,2.5293 -0.86861,0.48034 -1.91952,0.56729 -2.98046,0.16211 -1.33684,-0.51054 -2.18647,-1.58379 -2.37696,-3.00391 -0.0681,-0.50754 -0.26322,-0.92789 -0.47851,-1.14453 -0.10765,-0.10832 -0.22523,-0.16814 -0.33789,-0.14844 -0.11267,0.0197 -0.20066,0.11959 -0.25391,0.29297 -0.41698,1.35765 -0.71987,2.4326 -0.9043,3.20508 -0.0922,0.38624 -0.15495,0.69703 -0.1875,0.93164 -0.0326,0.23461 -0.0401,0.38822 -0.004,0.48242 0.0461,0.12003 0.17332,0.21401 0.33593,0.28321 0.16261,0.0692 0.36354,0.11133 0.56836,0.11133 0.25743,0 0.41598,0.0283 0.46485,0.0605 0.0122,0.008 0.0174,0.0144 0.0195,0.0195 0.002,0.005 0.003,0.0104 0,0.0215 -0.006,0.0222 -0.0311,0.0623 -0.0801,0.11133 -0.18201,0.182 -0.52394,0.23551 -0.86328,0.17187 -0.33934,-0.0636 -0.67065,-0.24285 -0.82813,-0.49414 -0.0931,-0.14865 -0.11889,-0.39068 -0.0547,-0.80273 0.0642,-0.41206 0.21607,-0.98975 0.4707,-1.80664 0.32305,-1.0363 0.48462,-1.76157 0.47851,-2.1875 -0.003,-0.21297 -0.0473,-0.36049 -0.15429,-0.42579 -0.0535,-0.0326 -0.1189,-0.0378 -0.18945,-0.0234 -0.0706,0.0144 -0.14808,0.0482 -0.23438,0.10156 -0.0939,0.058 -0.16756,0.17383 -0.22266,0.31641 -0.0551,0.14257 -0.0883,0.3132 -0.0898,0.47851 -0.0165,1.64784 -1.27755,3.09578 -3.23047,3.69727 -0.10604,0.0327 -0.19107,0.0683 -0.25781,0.125 -0.0667,0.0567 -0.11171,0.13384 -0.13477,0.23242 -0.0461,0.19715 -0.0148,0.48612 0.0645,0.96484 0.4635,2.80092 2.18178,5.68873 4.23242,7.09961 2.00567,1.37994 3.23461,1.73242 6.0039,1.73242 2.3902,0 2.65465,-0.057 4.5625,-1 0.55679,-0.2752 1.14013,-0.61808 1.63282,-0.94922 0.49268,-0.33113 0.89315,-0.64906 1.08984,-0.88281 0.26236,-0.3118 0.46406,-0.5094 0.5957,-0.60156 0.0658,-0.0461 0.11475,-0.0613 0.13282,-0.0606 0.009,3.7e-4 0.0107,3.7e-4 0.0137,0.004 0.003,0.004 0.008,0.0143 0.01,0.0332 0.008,0.0756 -0.0402,0.26549 -0.1582,0.53321 -0.11798,0.26771 -0.30192,0.61718 -0.55273,1.0371 -1.04201,1.74453 -3.23124,3.58468 -5.10743,4.29297 l -1.32226,0.5 a 0.04386773,0.04386773 0 0 0 -0.0273,0.043 l 0.0918,2.07617 c 0.0369,0.82565 0.0878,1.37857 0.18555,1.78711 0.0978,0.40855 0.24271,0.67303 0.46484,0.91407 0.15204,0.16498 0.30814,0.31476 0.4375,0.42382 0.0647,0.0545 0.12315,0.0992 0.17188,0.13086 0.0487,0.0317 0.0828,0.0527 0.12695,0.0527 6.6e-4,0 0.007,4.5e-4 0.01,0 0.003,-4.6e-4 0.006,-0.001 0.008,-0.002 0.004,-0.001 0.008,-0.002 0.0117,-0.004 0.008,-0.003 0.0146,-0.007 0.0234,-0.0117 0.0178,-0.01 0.0397,-0.0236 0.0664,-0.041 0.0535,-0.0349 0.12678,-0.0853 0.2168,-0.15039 0.18003,-0.13019 0.42888,-0.31715 0.73047,-0.54882 0.60318,-0.46336 1.41408,-1.104 2.28711,-1.80664 1.74473,-1.40421 3.97975,-3.08724 4.96093,-3.74024 0.83774,-0.55752 1.28537,-0.86762 1.51368,-1.14453 0.11415,-0.13845 0.1738,-0.27104 0.19336,-0.41602 0.0196,-0.14497 4.8e-4,-0.30155 -0.0313,-0.49414 -0.0727,-0.44132 -0.22727,-2.04794 -0.375,-3.79297 -0.14772,-1.74502 -0.28991,-3.63209 -0.33984,-4.64843 l -0.0606,-1.2461 1.41016,-0.47851 c 1.65792,-0.56127 2.52429,-1.4261 2.92969,-2.93164 0.7057,-2.62076 -1.089,-5.08392 -3.70703,-5.08594 z m -22.59375,0.57812 c -0.10957,-1.4e-4 -0.20266,0.0307 -0.27149,0.10547 -0.0918,0.0998 -0.13896,0.26272 -0.16406,0.50586 -0.0502,0.48628 -0.004,1.30584 0.0644,2.625 0.0465,0.89162 0.0982,1.73687 0.14649,2.38086 0.0241,0.322 0.0482,0.59466 0.0684,0.79688 0.0101,0.10111 0.0187,0.18375 0.0273,0.24804 0.009,0.0643 0.0167,0.10845 0.0254,0.13672 0.0356,0.11568 0.13668,0.18553 0.26953,0.21094 0.13286,0.0254 0.30072,0.0127 0.49219,-0.0332 0.38295,-0.0918 0.86295,-0.31595 1.33203,-0.64258 0.99336,-0.69169 1.33256,-1.94786 1.12891,-3.15235 -0.20366,-1.20448 -0.94959,-2.36367 -2.14063,-2.86132 -0.37023,-0.1547 -0.64887,-0.27449 -0.86328,-0.31055 -0.0402,-0.007 -0.0787,-0.01 -0.11523,-0.01 z m 9.70703,0.0801 c -0.33186,0.0172 -0.6702,0.0902 -1.00586,0.23047 -1.36342,0.56967 -2.06445,1.62981 -2.06445,3.11914 0,1.59789 0.85877,2.95927 2.15429,3.39649 1.67044,0.56373 3.25149,-0.16245 4.10547,-1.88086 0.98342,-1.97889 -0.35436,-4.22759 -2.2207,-4.75586 -0.31107,-0.088 -0.63689,-0.12655 -0.96875,-0.10938 z m -0.71875,2.18555 c 0.0949,-0.0127 0.18685,0.007 0.27344,0.0508 0.25989,0.1329 0.47553,0.50686 0.54492,0.92383 0.0694,0.41697 -0.005,0.87063 -0.30078,1.16601 -0.0852,0.0852 -0.1801,0.16288 -0.26368,0.21875 -0.0836,0.0559 -0.16206,0.0879 -0.18164,0.0879 -0.17422,0 -0.32286,-0.10327 -0.44336,-0.2754 -0.12049,-0.17212 -0.20906,-0.41235 -0.25195,-0.66992 -0.0858,-0.51513 0.01,-1.09702 0.32617,-1.35937 0.10322,-0.0857 0.20203,-0.12985 0.29688,-0.14258 z m -7.86914,0.0195 c 0.1367,0 0.27477,0.0756 0.40039,0.20508 0.12562,0.12949 0.23642,0.31298 0.31836,0.51562 0.16388,0.40529 0.20656,0.88963 0.043,1.19532 -0.16678,0.31162 -0.31613,0.46558 -0.45704,0.48632 -0.0704,0.0104 -0.14452,-0.009 -0.23046,-0.0644 -0.086,-0.0553 -0.18131,-0.14595 -0.28711,-0.27344 -0.20353,-0.24524 -0.27176,-0.77248 -0.21875,-1.23242 0.0265,-0.22997 0.083,-0.44395 0.16015,-0.5957 0.0772,-0.15176 0.16999,-0.23633 0.27149,-0.23633 z m 8.65039,7.13672 c 0.0153,-0.002 0.016,0.002 0.0137,0 0.0483,0.0483 0.0579,0.12068 0.0254,0.22852 -0.0325,0.10783 -0.10962,0.24276 -0.22461,0.39062 -0.22997,0.29573 -0.60976,0.64332 -1.07617,0.96094 -0.44257,0.30138 -1.2998,0.52024 -2.04102,0.59179 -0.3706,0.0358 -0.71407,0.0354 -0.95898,-0.006 -0.12246,-0.0207 -0.22009,-0.0515 -0.2832,-0.0898 -0.0631,-0.0384 -0.0898,-0.0776 -0.0898,-0.12695 0,-0.003 0.003,-0.009 0.0156,-0.0215 0.0127,-0.0121 0.0349,-0.0264 0.0664,-0.041 0.0631,-0.0292 0.15904,-0.0583 0.2793,-0.082 0.24052,-0.0474 0.5766,-0.0781 0.94531,-0.0781 0.59722,0 0.96743,-0.0263 1.29492,-0.16015 0.3275,-0.13382 0.60571,-0.37133 1.01954,-0.78516 0.25569,-0.25568 0.50645,-0.47178 0.70117,-0.61133 0.0974,-0.0698 0.18111,-0.11954 0.24219,-0.14648 0.0305,-0.0135 0.055,-0.0217 0.0703,-0.0234 z m -24.56641,51.26172 c -0.0432,-0.002 -0.0853,0.009 -0.11719,0.0371 -0.0319,0.0277 -0.0518,0.0685 -0.0625,0.11719 -0.03732,0.16978 0.0051,0.48159 0.08594,0.87109 0.0809,0.3895 0.20322,0.85087 0.33985,1.29101 0.13663,0.44015 0.28633,0.85888 0.42187,1.16602 0.0678,0.15357 0.1329,0.27947 0.19141,0.36719 0.0292,0.0439 0.0571,0.0787 0.0859,0.10351 0.0289,0.0248 0.0631,0.0432 0.10157,0.0352 0.008,-0.002 0.0123,-0.001 0.0215,0.004 0.009,0.005 0.0204,0.0171 0.0332,0.0351 0.0255,0.0361 0.0525,0.0968 0.0742,0.17774 0.0434,0.16179 0.0704,0.39949 0.0664,0.66601 -0.009,0.55102 0.1867,1.67266 0.4375,2.51367 0.12531,0.42024 0.27001,0.80337 0.40234,1.08204 0.0662,0.13933 0.12976,0.25314 0.1875,0.33398 0.0289,0.0404 0.0563,0.0718 0.084,0.0957 0.0277,0.0239 0.0564,0.041 0.0918,0.041 0.0514,0 0.10769,-0.0204 0.17579,-0.0547 0.0681,-0.0343 0.14579,-0.083 0.23046,-0.14258 0.16934,-0.11923 0.36455,-0.28251 0.54493,-0.46289 0.46271,-0.46271 0.67581,-0.97564 0.62304,-1.6582 -0.0528,-0.68257 -0.36584,-1.53459 -0.94726,-2.69531 -0.53545,-1.06893 -1.29057,-2.18453 -1.9336,-2.95118 -0.32151,-0.38332 -0.61462,-0.67933 -0.84179,-0.83984 -0.11359,-0.0802 -0.21043,-0.12937 -0.29688,-0.13281 z m 17.55469,0.49609 c -1.5864,-0.0263 -2.83216,0.27705 -4.16797,0.90235 -1.02069,0.47779 -2.28776,1.16703 -2.82617,1.53906 -0.98992,0.68402 -2.2125,2.14969 -3.11133,3.5293 -0.44942,0.6898 -0.81755,1.35719 -1.0332,1.89648 -0.10783,0.26964 -0.17686,0.50667 -0.19922,0.70117 -0.0224,0.1945 0.001,0.35104 0.0977,0.44727 0.0316,0.0316 0.0792,0.0438 0.125,0.0371 0.0458,-0.007 0.0917,-0.028 0.14453,-0.0625 0.10559,-0.0689 0.23475,-0.19045 0.39062,-0.36524 0.31174,-0.34958 0.73207,-0.91329 1.26172,-1.69336 2.22163,-3.27203 3.7329,-4.70308 5.51172,-5.22851 0.27131,-0.0801 0.44888,-0.10123 0.51367,-0.0859 0.0162,0.004 0.023,0.009 0.0254,0.0117 0.002,0.002 0.002,0.002 0.002,0.008 -2.9e-4,0.0117 -0.0154,0.0474 -0.0547,0.0937 -0.15702,0.18556 -0.64564,0.52599 -1.38086,0.91016 -1.65092,0.86264 -2.95808,2.30242 -4.71485,5.18945 -0.61018,1.00277 -0.94419,1.66731 -1.01367,2.09766 -0.0347,0.21517 -4e-4,0.37891 0.10938,0.48437 0.10978,0.10546 0.28243,0.14649 0.51172,0.14649 0.33611,0 0.63182,-0.13029 1.06054,-0.57618 0.42873,-0.44588 0.99889,-1.20845 1.9043,-2.48828 1.65841,-2.34424 2.75725,-3.4539 4.25391,-4.30469 0.53572,-0.30453 0.91244,-0.48161 1.14453,-0.53515 0.11604,-0.0268 0.1929,-0.0213 0.23437,0.002 0.0415,0.0232 0.0625,0.0646 0.0625,0.14649 0,0.003 -0.0195,0.0456 -0.0703,0.0937 -0.0508,0.0482 -0.12805,0.10533 -0.22266,0.16796 -0.18921,0.12528 -0.45128,0.2701 -0.74023,0.4004 -1.2615,0.56885 -3.16876,2.5219 -4.73047,4.82812 -0.59412,0.87735 -0.91817,1.39676 -1.0332,1.73438 -0.0575,0.1688 -0.063,0.29683 -0.0117,0.39843 0.0513,0.10161 0.15331,0.16672 0.28711,0.22071 0.18655,0.0753 0.44526,0.1439 0.59179,0.15625 0.14086,0.0119 0.32362,-0.0564 0.53907,-0.17774 0.21544,-0.1213 0.4614,-0.29738 0.71679,-0.50781 0.5108,-0.42087 1.05558,-0.98111 1.44336,-1.52344 1.32963,-1.85952 2.77622,-3.29165 4.01563,-3.98437 0.67009,-0.37451 1.02167,-0.56697 1.1914,-0.61914 0.0424,-0.013 0.074,-0.0171 0.0918,-0.0156 0.0178,0.001 0.0215,0.006 0.0273,0.0137 0.0116,0.0151 0.0215,0.0695 0.0215,0.15235 0,0.002 -0.004,0.018 -0.0176,0.0391 -0.0133,0.0211 -0.0343,0.0478 -0.0625,0.0781 -0.0565,0.0606 -0.1401,0.13429 -0.24414,0.2168 -0.20808,0.16503 -0.49705,0.36282 -0.81445,0.54883 -0.96111,0.56325 -2.133,1.69227 -3.01563,2.76953 -0.44131,0.53863 -0.81021,1.0634 -1.04297,1.5 -0.11637,0.2183 -0.19984,0.41344 -0.24023,0.58008 -0.0404,0.16664 -0.0396,0.30809 0.0234,0.41016 0.0558,0.0903 0.18016,0.15145 0.33789,0.19921 0.15772,0.0478 0.35013,0.0762 0.54297,0.0762 0.51096,0 1.10679,-0.42701 2.0664,-1.44336 0.58194,-0.61634 1.04175,-1.07967 1.45508,-1.39844 0.41333,-0.31877 0.77889,-0.49103 1.17774,-0.5332 0.79768,-0.0844 1.74869,0.3627 3.4707,1.29101 2.17558,1.17282 2.79559,1.38281 4.40625,1.49805 l 1.86523,0.13476 a 0.04386773,0.04386773 0 0 0 0.0469,-0.0449 l -0.18555,-3.01562 c -0.10199,-1.65894 -0.25059,-3.4399 -0.33203,-3.96875 l -0.14648,-0.94922 a 0.04386773,0.04386773 0 0 0 -0.0313,-0.0371 l -4.00781,-1.02149 c -2.70622,-0.69032 -4.63429,-1.04405 -6.2207,-1.07031 z" /><path
         id="path43"
         style="fill:#121212;fill-opacity:1;stroke-width:0.119417"
         d="m 473.79687,513.99023 c -0.24997,-0.0822 -0.36233,-0.008 -0.47851,0.0371 -0.11619,0.0454 -0.22911,0.106 -0.35547,0.18164 -0.25271,0.1513 -0.55438,0.36445 -0.90234,0.63282 -0.69593,0.53673 -1.56664,1.28699 -2.45313,2.1289 -1.60021,1.51974 -2.54693,2.32405 -3.52148,2.76758 -0.97456,0.44353 -2.04413,0.56446 -3.96094,0.64649 -3.78687,0.16205 -4.73271,0.27076 -5.74414,0.69335 l -0.42969,0.17969 a 0.45701335,0.45701335 0 0 0 -0.14844,0.74414 l 0.25,0.25196 a 0.45701335,0.45701335 0 0 0 0.002,0 c 0.28738,0.28738 0.64444,0.42084 1.0332,0.52539 0.53,0.1424 1.389,0.17733 2.375,0.17382 0.986,-0.004 2.05251,-0.0634 2.85156,-0.18164 2.33782,-0.34595 4.46131,-0.93275 5.90625,-1.6582 0.96821,-0.48609 2.18244,-1.41853 3.27344,-2.41406 1.091,-0.99554 2.03497,-2.00974 2.44141,-2.81836 0.18343,-0.36494 0.30048,-0.69146 0.33203,-1.00195 0.0158,-0.15525 0.0125,-0.31114 -0.0508,-0.47852 -0.0633,-0.16738 -0.22387,-0.34568 -0.41993,-0.41016 z"
         transform="matrix(0.26458333,0,0,0.26458333,-0.59129101,-20.072147)" /><path
         id="path35"
         style="display:inline;fill:#17182a;fill-opacity:1"
         d="m 128.17383,87.976562 c -1.57227,0.0846 -3.29401,0.539702 -5.29102,1.359375 -1.54312,0.633376 -2.631,0.966892 -3.59375,1.041016 -0.96275,0.07412 -1.81392,-0.103939 -2.92383,-0.527344 -1.46816,-0.560068 -2.69831,-0.782827 -3.79492,-0.628906 -1.0966,0.153922 -2.04493,0.689226 -2.92187,1.589844 -1.24163,1.275135 -1.82841,3.214677 -1.65625,5.359375 0.22659,2.822967 1.64979,4.694588 4.65429,6.154298 l 1.09766,0.5332 v 1.63867 c 0,0.77207 -0.0236,1.21878 -0.084,1.44141 -0.0302,0.11131 -0.0617,0.16079 -0.0977,0.19531 -0.0359,0.0345 -0.0885,0.0623 -0.1875,0.0937 -1.934,0.61384 -3.08622,2.85533 -2.53711,4.89453 0.1829,0.67925 0.61011,1.36041 1.13086,1.91016 0.52075,0.54975 1.13149,0.97356 1.73242,1.09375 0.25233,0.0505 0.40844,0.12232 0.51172,0.21875 0.10328,0.0964 0.17062,0.22888 0.2168,0.45117 0.74773,3.59962 1.50498,5.20617 3.32422,7.02539 l 1.13476,1.13477 -0.59179,1.1289 c -0.36796,0.70255 -0.60029,1.67607 -0.69336,2.64063 -0.0931,0.96456 -0.0495,1.9106 0.19531,2.57812 0.0383,0.10443 0.044,0.16398 0.0371,0.20118 -0.007,0.0372 -0.0262,0.0814 -0.11524,0.16211 -0.17804,0.16148 -0.61407,0.40638 -1.39648,0.79492 -3.03016,1.50472 -6.0582,4.81884 -9.32227,10.13672 -5.09256,8.29688 -7.657728,12.47583 -8.974606,14.49218 -0.634536,0.97158 -0.970413,1.40667 -1.13086,1.5625 -0.05582,-0.1567 -0.29918,-0.9462 -0.640625,-2.10156 -0.350952,-1.18752 -0.803316,-2.7423 -1.273437,-4.37891 -0.866662,-3.01705 -1.406041,-4.77319 -1.882813,-5.87109 -0.476771,-1.0979 -0.927501,-1.56076 -1.535156,-1.87305 -0.134975,-0.0693 -0.270801,-0.0842 -0.507812,-0.11132 -0.237012,-0.0271 -0.559197,-0.0509 -0.986329,-0.0723 -0.854263,-0.0428 -2.124526,-0.0743 -3.929687,-0.0996 -3.610321,-0.0507 -9.357298,-0.0708 -18.158203,-0.0723 l -22.841797,-0.004 a 0.22887984,0.22887984 0 0 0 -0.162109,0.0664 l -0.773438,0.77343 c -0.230532,0.23054 -0.43318,0.5083 -0.583984,0.78125 -0.150805,0.27296 -0.25586,0.53166 -0.25586,0.78125 0,0.21329 0.06161,0.52702 0.210938,1.13672 0.149333,0.6097 0.389698,1.5037 0.759765,2.81445 0.740135,2.62152 1.996894,6.91045 4.064454,13.91407 1.288671,4.36523 2.961724,10.08293 3.71875,12.70117 0.657304,2.27335 1.150828,3.82928 1.541015,4.83008 0.195094,0.5004 0.362105,0.86149 0.523438,1.11328 0.08067,0.12589 0.159427,0.22562 0.25,0.30273 0.01603,0.0137 0.04123,0.0112 0.05859,0.0234 -0.12149,0.0111 -0.221085,0.0229 -0.402343,0.0332 -0.57007,0.0325 -1.427002,0.0619 -2.560547,0.084 -2.267091,0.0442 -5.63933,0.0664 -10.046875,0.0664 H 27.992187 a 0.22887984,0.22887984 0 0 0 -0.152343,0.0586 l -0.853516,0.76367 c -0.396001,0.35383 -0.648604,0.61402 -0.785156,0.98633 -0.136552,0.3723 -0.151726,0.80875 -0.15625,1.54297 -0.0059,0.96905 0.143693,1.74205 0.498047,2.3457 0.354353,0.60365 0.912795,1.02143 1.654297,1.28125 0.122392,0.0429 0.215289,0.0405 0.417968,0.0547 0.20268,0.0142 0.483181,0.0283 0.84961,0.041 0.732857,0.0254 1.810607,0.0476 3.283203,0.0684 2.945191,0.0416 7.470578,0.0739 13.972656,0.0996 13.004156,0.0514 33.911739,0.0744 65.871097,0.0801 35.76011,0.006 56.64727,-0.003 68.6914,-0.0547 6.02207,-0.0258 9.83306,-0.0613 12.18946,-0.11133 1.1782,-0.025 1.99111,-0.0534 2.53906,-0.0859 0.27397,-0.0163 0.48285,-0.0337 0.63867,-0.0527 0.15582,-0.019 0.25115,-0.0339 0.34766,-0.0742 0.67615,-0.28251 1.1833,-0.75614 1.48437,-1.39648 0.30107,-0.64035 0.40256,-1.43814 0.32422,-2.38281 -0.0513,-0.61921 -0.11663,-1.03714 -0.27344,-1.39649 -0.15681,-0.35934 -0.40197,-0.63581 -0.76367,-0.95898 l -0.83789,-0.75 a 0.22887984,0.22887984 0 0 0 -0.15234,-0.0586 h -15.8711 c -4.3637,0 -8.33028,-0.0229 -11.20508,-0.0586 -1.43739,-0.0178 -2.60293,-0.039 -3.40625,-0.0625 -0.26608,-0.008 -0.42635,-0.0172 -0.60937,-0.0254 0.1714,-0.0906 0.34675,-0.18348 0.57031,-0.27539 1.53143,-0.6296 3.67972,-2.5197 4.77149,-4.16797 1.73039,-2.61243 2.39258,-6.79226 1.5957,-10.00195 -0.43973,-1.77112 -2.30002,-6.15206 -7.64063,-18.08203 -2.88027,-6.43403 -4.31891,-9.64951 -5.29687,-11.53907 -0.97796,-1.88955 -1.51167,-2.46443 -2.51563,-3.53515 h 0.002 l -1.57227,-1.67774 0.41211,-0.91992 c 1.1283,-2.50973 0.88468,-5.67449 -0.30859,-8.57422 -1.19328,-2.89973 -3.3422,-5.54421 -6.08399,-7.00781 -2.00962,-1.07277 -5.14458,-1.80469 -7.69336,-1.80469 h -1.58984 l 0.32617,-0.34179 c 1.36755,-1.43351 1.696,-3.55262 0.88867,-5.57032 -0.18714,-0.46776 -0.2677,-0.71902 -0.26562,-1.00781 0.002,-0.28879 0.0927,-0.64825 0.28906,-1.29101 0.35128,-1.14983 0.55709,-2.71166 0.61133,-4.20313 0.0542,-1.491471 -0.0376,-2.898857 -0.32813,-3.773438 -0.72392,-2.179519 -2.98705,-3.912282 -5.15625,-3.919921 -0.0142,-5e-5 -0.0995,-0.03329 -0.20703,-0.189454 -0.10755,-0.156166 -0.22359,-0.409597 -0.32031,-0.732421 -0.20667,-0.689811 -0.74334,-1.471083 -1.41211,-2.185547 -0.66877,-0.714464 -1.46872,-1.35396 -2.22656,-1.712891 -1.37129,-0.649467 -2.79104,-0.93811 -4.36328,-0.853516 z m 2.48633,13.240238 c 0.26625,0.0695 0.44503,0.19645 0.59961,0.41992 0.30916,0.44694 0.46822,1.32958 0.5664,2.70703 0.0418,0.58578 0.0987,1.17899 0.15625,1.66602 0.0576,0.48702 0.10923,0.84868 0.16797,1.04687 0.029,0.0977 0.0289,0.14778 0.0176,0.18555 -0.0113,0.0378 -0.0423,0.0894 -0.14649,0.17187 -0.20837,0.16495 -0.6817,0.40315 -1.51562,0.77149 -0.58618,0.25889 -1.07349,0.44025 -1.40625,0.5332 -0.16638,0.0465 -0.29593,0.0696 -0.36328,0.0723 -0.005,2e-4 -0.002,6e-5 -0.006,0 -0.15214,-0.36174 -0.47874,-0.77442 -0.88477,-1.19532 -0.44102,-0.45718 -0.93753,-0.88456 -1.34961,-1.09765 -1.84731,-0.95529 -4.246,-0.21532 -5.125,1.59961 -0.20191,0.41692 -0.3035,0.57686 -0.46679,0.6582 -0.1633,0.0813 -0.48427,0.10742 -1.125,0.10742 -0.58768,0 -0.92149,-0.0289 -1.10352,-0.0996 -0.18203,-0.0707 -0.25908,-0.16799 -0.40039,-0.43945 -0.53659,-1.0308 -1.531,-1.84094 -2.71094,-2.21875 l -0.83398,-0.26563 v -1.36523 -1.29297 l 2.75976,0.12305 c 3.55438,0.15685 5.64258,-0.15183 9.58985,-1.41992 1.04343,-0.33522 1.85902,-0.56556 2.48437,-0.66407 0.46907,-0.0739 0.82946,-0.0734 1.09571,-0.004 z m 7.12695,4.79492 c 0.0912,0 0.3424,0.0518 0.61523,0.14258 0.27283,0.0908 0.58113,0.21655 0.84961,0.35351 1.57268,0.80232 2.41423,3.15279 1.74024,4.93164 -0.50216,1.32534 -2.04957,2.53498 -3.34961,2.64258 -0.20394,0.0169 -0.42268,0.0241 -0.60156,0.19336 -0.17889,0.16931 -0.23572,0.4232 -0.25391,0.8125 -0.0364,0.77859 0.10097,2.22456 0.37109,5.13672 0.10795,1.1638 0.20748,2.25707 0.2793,3.08203 0.0359,0.41248 0.0656,0.75921 0.0859,1.01172 0.0189,0.23465 0.0277,0.37853 0.0293,0.41016 -0.0118,0.0187 -0.0354,0.0502 -0.0703,0.0898 -0.0725,0.0822 -0.18734,0.19466 -0.33203,0.32031 -0.28938,0.25131 -0.69669,0.56166 -1.14453,0.86328 -0.92965,0.62613 -3.1773,2.34971 -5.02539,3.85157 l -3.17969,2.58593 -0.66992,-0.76172 c -0.37264,-0.4244 -0.54381,-0.65313 -0.64063,-0.99804 -0.0968,-0.34491 -0.11718,-0.84224 -0.11718,-1.75391 0,-0.696 0.0255,-1.18434 0.0742,-1.47656 0.0243,-0.14611 0.0565,-0.24365 0.0762,-0.2793 0.0197,-0.0356 -0.0125,0.006 -0.0469,0.006 0.25299,-0.002 0.54443,-0.0975 0.89844,-0.24414 0.35401,-0.14662 0.75919,-0.34938 1.17969,-0.58789 0.84098,-0.47702 1.74181,-1.09119 2.38476,-1.67187 0.76115,-0.68744 1.69754,-1.86198 2.13672,-2.68165 l 0.75781,-1.41406 a 0.22887984,0.22887984 0 0 0 -0.36132,-0.27148 l -1.01954,1.00195 c -1.27981,1.25664 -3.73483,2.43627 -5.75195,2.75 -5.2893,0.82266 -9.97049,-2.60081 -11.29883,-8.29492 -0.16966,-0.72726 -0.24516,-1.13352 -0.23828,-1.30469 0.003,-0.0856 0.0141,-0.0937 0.0215,-0.10156 0.007,-0.008 0.0455,-0.0302 0.13476,-0.0586 1.13069,-0.36019 1.89615,-0.71946 2.42188,-1.24415 0.52573,-0.52468 0.78064,-1.20152 0.91015,-2.11132 0.0747,-0.52507 0.15245,-0.8352 0.23438,-0.98047 0.0819,-0.14528 0.1358,-0.16901 0.34766,-0.19922 0.16833,-0.024 0.26513,-0.017 0.28125,-0.0156 0.002,0.01 0.005,0.0168 0.004,0.0606 -0.006,0.24309 -0.19973,0.92147 -0.60156,2.17969 -0.18185,0.56939 -0.34765,1.12578 -0.46875,1.56445 -0.0605,0.21934 -0.10954,0.40887 -0.14453,0.5586 -0.035,0.14972 -0.0575,0.23844 -0.0586,0.34375 -0.002,0.21881 0.11429,0.40421 0.26368,0.54296 0.14939,0.13876 0.33793,0.24243 0.54492,0.31641 0.41396,0.14797 0.90518,0.18987 1.28906,-0.0332 0.11052,-0.0642 0.19195,-0.11201 0.26367,-0.17578 0.0359,-0.0319 0.0773,-0.0639 0.10547,-0.15039 0.0282,-0.0865 -0.0238,-0.23592 -0.0879,-0.28711 -0.12814,-0.1024 -0.19968,-0.0821 -0.31445,-0.0918 -0.11478,-0.01 -0.26104,-0.0139 -0.44922,-0.0156 -0.3297,-0.003 -0.51283,-0.0462 -0.56641,-0.0801 -0.0268,-0.0169 -0.0311,-0.022 -0.043,-0.0527 -0.0119,-0.0307 -0.0234,-0.0911 -0.0234,-0.18164 0,-0.005 0.0119,-0.11868 0.0391,-0.26172 0.0271,-0.14304 0.0668,-0.3309 0.11523,-0.54492 0.0968,-0.42803 0.2292,-0.9669 0.36719,-1.50391 0.13799,-0.537 0.28272,-1.07214 0.4043,-1.49414 0.0608,-0.21099 0.11685,-0.39458 0.16211,-0.5332 0.0223,-0.0682 0.028,-0.0786 0.0449,-0.12305 0.0591,0.0142 0.12652,0.0296 0.20703,0.0606 -0.007,-0.003 0.11829,0.10537 0.20898,0.29102 0.0907,0.18564 0.17054,0.43472 0.21094,0.6875 a 0.22887984,0.22887984 0 0 0 0,0.002 c 0.43033,2.69116 3.52988,4.26253 5.80274,2.91992 0.5038,-0.29761 0.97451,-0.85567 1.33984,-1.4707 0.36533,-0.61503 0.62305,-1.28063 0.62305,-1.84375 0,-0.28322 0.0141,-0.36956 0.25976,-0.56641 0.24562,-0.19685 0.75124,-0.45264 1.65235,-0.86328 0.99434,-0.45314 1.51213,-0.6777 1.81445,-0.73047 0.15116,-0.0264 0.24283,-0.0174 0.35156,0.0176 0.10873,0.0349 0.23719,0.1061 0.41797,0.21289 0.21354,0.12614 0.41461,0.22941 0.57617,0.29883 0.0808,0.0347 0.15117,0.0613 0.21875,0.0781 0.0338,0.008 0.0668,0.0158 0.11328,0.0156 0.0465,-1.4e-4 0.13604,-2.3e-4 0.21094,-0.10156 0.0279,-0.0378 0.0459,-0.0688 0.0859,-0.13282 0.04,-0.064 0.0921,-0.14853 0.15429,-0.25 0.12436,-0.20292 0.28556,-0.47029 0.45508,-0.75195 0.56856,-0.94461 1.74726,-1.64453 2.72266,-1.64453 z m -22.73047,0.79492 c 0.62976,0 1.37643,0.45557 1.95117,1.13867 0.57474,0.6831 0.97046,1.57754 0.9668,2.3711 -0.005,1.14655 -0.43418,1.92071 -1.45898,2.61132 -0.38214,0.25752 -0.67998,0.43535 -0.88868,0.51758 -0.20869,0.0822 -0.28449,0.0706 -0.34179,0.0293 -0.0573,-0.0413 -0.14881,-0.18952 -0.2168,-0.49023 -0.068,-0.30072 -0.11774,-0.73553 -0.16602,-1.30665 -0.0934,-1.10547 -0.17187,-2.7155 -0.17187,-3.55273 0,-0.69437 0.0268,-1.08127 0.0762,-1.21875 0.0247,-0.0687 0.0302,-0.0663 0.0508,-0.0762 0.0206,-0.01 0.0859,-0.0234 0.19922,-0.0234 z m 9.85547,0.0352 c 0.40861,0.0364 0.84233,0.15519 1.28906,0.36718 2.24145,1.06364 2.42043,4.49013 0.30274,5.78125 -1.36995,0.83524 -2.78181,0.50525 -3.7168,-0.40625 -0.93499,-0.91149 -1.37011,-2.40224 -0.69531,-3.92773 0.57989,-1.31095 1.59593,-1.92361 2.82031,-1.81445 z m -11.12305,0.10156 c 0.0177,0.0457 0.0411,0.13699 0.0684,0.27148 0.0243,0.11994 0.0769,0.6243 0.125,1.26954 0.048,0.64523 0.0975,1.45493 0.13672,2.27148 0.0394,0.81931 0.0651,1.43586 0.0605,1.87891 -0.005,0.44304 -0.0561,0.71594 -0.0996,0.79492 -0.0217,0.0395 -0.0183,0.0289 -0.0273,0.0312 -0.009,0.002 -0.0537,0.007 -0.13476,-0.0195 -0.16216,-0.0527 -0.43894,-0.21059 -0.80469,-0.4336 -2.20177,-1.34249 -2.09311,-4.65949 0.18945,-5.83984 0.18119,-0.0937 0.3166,-0.16251 0.40821,-0.19922 0.0666,-0.0267 0.0713,-0.0232 0.0781,-0.0254 z m 28.83985,7.62305 c 2.10935,0.13724 4.3643,0.68268 6.10546,1.51172 3.15377,1.50164 5.62619,4.46769 6.66602,8.00781 0.29288,0.99712 0.4292,2.33282 0.4082,3.58984 -0.021,1.25702 -0.20687,2.44491 -0.51367,3.12109 -0.23906,0.52691 -0.40309,0.78605 -0.43555,0.81641 -0.0301,-0.0163 -0.0954,-0.0635 -0.1914,-0.15039 -0.1714,-0.15511 -0.48952,-0.34471 -0.91406,-0.58203 -0.42455,-0.23733 -0.94193,-0.50543 -1.45508,-0.74805 -1.68626,-0.79725 -2.15867,-0.8927 -4.32813,-0.87695 -1.46444,0.0106 -2.74412,0.19819 -4.52734,0.80469 -1.78322,0.60649 -4.07446,1.62816 -7.60742,3.3125 -2.60463,1.24175 -3.82488,1.81963 -4.38867,2.11914 -0.14095,0.0749 -0.24218,0.13259 -0.31836,0.18359 -0.0762,0.051 -0.13458,0.0853 -0.18555,0.18164 -0.0255,0.0482 -0.0412,0.12284 -0.0273,0.1875 0.0139,0.0647 0.0456,0.10724 0.0684,0.13281 0.0455,0.0512 0.0683,0.0625 0.0742,0.0684 6e-4,6e-4 0.0404,0.0335 0.0586,0.043 0.0182,0.009 0.0351,0.0138 0.0488,0.0176 0.0275,0.008 0.0464,0.009 0.0625,0.01 0.0321,8.8e-4 0.0521,-0.002 0.0723,-0.006 0.0402,-0.007 0.0783,-0.0176 0.12305,-0.0312 0.0895,-0.0274 0.20299,-0.0691 0.34765,-0.125 0.28933,-0.11189 0.6943,-0.28051 1.18555,-0.49414 0.9825,-0.42728 2.31442,-1.03361 3.76367,-1.71875 3.70473,-1.75145 5.73611,-2.68381 7.22266,-3.17383 1.48655,-0.49002 2.42893,-0.54688 4.0332,-0.54688 2.46627,0 2.6768,0.0395 4.34766,0.86133 1.99946,0.98351 4.71937,3.40258 5.90234,5.24609 0.20817,0.32441 0.70792,1.29268 1.31446,2.54688 0.60653,1.2542 1.33019,2.80862 2.02343,4.35742 5.03306,11.24467 7.61318,17.02335 8.96289,20.32031 1.34971,3.29697 1.4629,4.07702 1.58594,5.42579 0.44261,4.8521 -2.10565,9.45236 -6.3125,11.42382 l -1.47461,0.69141 -13.17969,0.0254 c -13.88972,0.0257 -14.50346,0.01 -17.36132,-0.44727 -0.84606,-0.13521 -1.29023,-0.22997 -1.45118,-0.32031 -0.0805,-0.0452 -0.0922,-0.0637 -0.11132,-0.12109 -0.0191,-0.0574 -0.0293,-0.1689 -0.0293,-0.33399 0,-0.53301 -0.13364,-0.9639 -0.47461,-1.23046 -0.34097,-0.26657 -0.82418,-0.34961 -1.48242,-0.34961 h -0.88086 l -0.31641,-4.3086 c -0.1512,-2.0606 -0.22317,-3.20141 -0.20898,-3.85937 0.007,-0.32898 0.0358,-0.53295 0.0781,-0.66797 0.0423,-0.13502 0.0919,-0.20578 0.17969,-0.30274 0.53313,-0.58909 1.4662,-1.05182 3.85156,-1.57031 2.38536,-0.51848 6.19617,-1.08827 12.41797,-1.92383 4.86359,-0.65316 8.00581,-1.09488 9.9375,-1.41015 0.96585,-0.15764 1.62757,-0.28417 2.0586,-0.39063 0.21551,-0.0532 0.3709,-0.10044 0.49023,-0.15234 0.0597,-0.0259 0.11145,-0.05 0.16211,-0.0918 0.0506,-0.0417 0.11719,-0.11818 0.11719,-0.23242 0,-0.0927 -0.045,-0.19027 -0.10743,-0.25 -0.0624,-0.0597 -0.13326,-0.0885 -0.20312,-0.10547 -0.13972,-0.034 -0.28709,-0.0222 -0.44336,0.0215 -0.15925,0.0445 -0.58,0.12152 -1.09375,0.20117 -0.51375,0.0797 -1.1303,0.16641 -1.72656,0.24218 -0.59627,0.0758 -1.1722,0.14136 -1.60156,0.18165 -0.21469,0.0201 -0.39327,0.0337 -0.51563,0.0391 -0.031,0.001 -0.0454,0.002 -0.0684,0.002 -0.007,-0.0123 -0.01,-0.0186 -0.0176,-0.0332 -0.0457,-0.0863 -0.11088,-0.21318 -0.19336,-0.37305 -0.16495,-0.31974 -0.39897,-0.77593 -0.68359,-1.33594 -0.56924,-1.12 -1.3424,-2.65292 -2.18359,-4.32617 -1.83677,-3.65361 -3.01143,-5.95382 -3.75,-7.32422 -0.36929,-0.68519 -0.62884,-1.13552 -0.81446,-1.41601 -0.0928,-0.14025 -0.16396,-0.23681 -0.24023,-0.31055 -0.0381,-0.0369 -0.0744,-0.0721 -0.14649,-0.0977 -0.0721,-0.0255 -0.21295,-0.008 -0.28125,0.0606 -5.5e-4,5.5e-4 -0.0543,0.0869 -0.0547,0.0879 -3.4e-4,9.7e-4 -0.0123,0.0436 -0.0137,0.0586 -0.003,0.03 -3e-5,0.0476 0.002,0.0625 0.004,0.0298 0.009,0.0489 0.0156,0.0703 0.0126,0.0427 0.0298,0.0883 0.0527,0.14648 0.0459,0.11628 0.11589,0.27686 0.20703,0.47852 0.18227,0.40331 0.45226,0.97311 0.79101,1.67187 0.67751,1.39754 1.62899,3.30549 2.69141,5.38867 1.0617,2.08177 2.02696,3.98567 2.72656,5.375 0.34981,0.69467 0.63247,1.26108 0.82813,1.65625 0.0849,0.17158 0.14543,0.29531 0.19531,0.39844 -0.0468,0.0108 -0.0781,0.0193 -0.13867,0.0312 -0.24413,0.0484 -0.58701,0.10343 -0.96485,0.15235 -8.70531,1.12711 -13.81011,1.83974 -16.96093,2.4707 -3.15082,0.63096 -4.3778,1.19233 -5.25,2.01172 l -0.50196,0.4707 -3.91796,-0.98828 c -4.00925,-1.00935 -6.88133,-1.32352 -8.53321,-0.85742 l -0.40234,0.11328 -0.43945,-5.20313 c -0.25482,-3.01432 -0.65847,-7.7729 -0.89649,-10.57421 -0.11927,-1.40373 -0.25743,-2.68047 -0.38281,-3.60938 -0.0627,-0.46445 -0.1215,-0.83954 -0.17578,-1.10742 -0.0271,-0.13394 -0.0525,-0.23989 -0.0801,-0.32422 -0.0138,-0.0422 -0.0268,-0.0792 -0.0508,-0.12109 -0.012,-0.0209 -0.0264,-0.0438 -0.0566,-0.0723 -0.0302,-0.0284 -0.0875,-0.0684 -0.16992,-0.0684 -0.0747,0 -0.15083,0.0324 -0.19922,0.0742 -0.0484,0.0418 -0.0768,0.0885 -0.0977,0.13281 -0.0418,0.0886 -0.0576,0.17915 -0.0684,0.28321 -0.0216,0.2081 -0.01,0.46986 0.0352,0.76562 0.0367,0.24302 0.14104,1.29622 0.27148,2.74609 0.13044,1.44988 0.28989,3.31462 0.44727,5.24219 l 0.56836,6.9375 -2.05664,3.375 c -1.15216,1.89238 -2.49821,4.12189 -2.99414,4.96094 -0.59392,1.00483 -1.53587,2.2159 -2.48047,3.24609 -0.4676,0.50997 -0.93985,0.97443 -1.36719,1.35157 0.16026,-0.2688 0.27439,-0.56504 0.29687,-0.91211 0.0567,-0.87462 -0.29147,-1.9666 -1.00195,-3.38868 -1.12707,-2.25591 -2.41486,-3.9324 -3.5918,-4.54101 -0.24641,-0.12743 -0.411569,-0.27425 -0.572261,-0.53711 -0.160693,-0.26286 -0.30871,-0.64735 -0.470703,-1.2168 -0.117066,-0.41151 -0.209514,-0.80081 -0.261719,-1.08984 -0.02091,-0.11575 -0.02957,-0.19998 -0.03711,-0.27539 0.05757,0.0137 0.114466,0.0262 0.201172,0.0586 0.240469,0.0898 0.566079,0.24688 0.917971,0.44141 0.70378,0.38905 1.51614,0.93213 2.02148,1.38867 0.56722,0.51242 0.9034,0.80108 1.17188,0.91992 0.0671,0.0297 0.13591,0.0598 0.24219,0.041 0.10627,-0.0188 0.2132,-0.13973 0.23242,-0.22852 0.0384,-0.17757 -0.0192,-0.28615 -0.084,-0.45508 -0.0982,-0.25593 -0.32782,-0.46812 -0.64453,-0.74218 -0.3167,-0.27407 -0.72071,-0.57774 -1.15234,-0.8711 -0.86326,-0.58671 -1.81327,-1.13074 -2.437503,-1.29883 -0.236777,-0.0637 -0.405344,-0.11439 -0.523437,-0.17382 -0.118093,-0.0594 -0.189567,-0.1211 -0.269531,-0.24219 -0.159928,-0.24217 -0.31554,-0.75375 -0.585938,-1.75586 -0.152319,-0.5645 -0.290774,-1.13327 -0.390625,-1.5918 -0.09985,-0.45852 -0.158203,-0.83896 -0.158203,-0.90234 0,0.0653 0.0088,-0.0222 0.04687,-0.11328 0.03805,-0.0911 0.09655,-0.21844 0.173828,-0.37305 0.154561,-0.30921 0.380483,-0.7306 0.660156,-1.23047 0.559348,-0.99973 1.333209,-2.3148 2.183598,-3.70117 4.12424,-6.7237 7.73366,-12.58019 9.125,-14.80078 1.39513,-2.22665 4.87993,-5.55049 6.97656,-6.66797 l 1.50976,-0.80273 2.04297,1.9746 c 1.05285,1.01884 2.00858,1.87388 2.73243,2.45508 0.36192,0.2906 0.66414,0.5129 0.90039,0.65625 0.11812,0.0717 0.218,0.12533 0.3164,0.15821 0.0492,0.0164 0.0981,0.0275 0.16016,0.0273 0.062,-1.8e-4 0.15115,-0.0185 0.2168,-0.0859 7.9e-4,-8.1e-4 0.0583,-0.10233 0.0586,-0.10351 1.6e-4,-6e-4 0.007,-0.0327 0.008,-0.0469 9.6e-4,-0.0142 10e-4,-0.0259 0,-0.0371 -0.004,-0.0447 -0.0147,-0.0689 -0.0234,-0.0879 -0.0175,-0.0379 -0.0341,-0.0564 -0.0508,-0.0781 -0.0334,-0.0434 -0.0732,-0.0859 -0.125,-0.13868 -0.10369,-0.10544 -0.25279,-0.24385 -0.43945,-0.41015 -0.37333,-0.33261 -0.89589,-0.77514 -1.48438,-1.25 -1.15405,-0.93122 -2.60129,-2.40267 -3.16406,-3.20117 -0.93033,-1.32005 -1.03515,-1.59521 -1.03515,-2.81836 0,-0.91551 0.20232,-1.80673 0.60937,-2.67578 0.30353,-0.64805 0.5535,-1.02383 0.71094,-1.14258 0.0787,-0.0594 0.11348,-0.0635 0.16406,-0.0547 0.0506,0.009 0.13459,0.0502 0.24414,0.15039 0.0686,0.0627 0.14172,0.10339 0.24219,0.1582 0.10046,0.0548 0.22339,0.11695 0.36328,0.18165 0.27979,0.12938 0.62538,0.27362 0.97656,0.40429 0.61861,0.23016 0.89352,0.35648 0.99024,0.48242 0.0484,0.063 0.0775,0.1401 0.0957,0.28907 0.0182,0.14896 0.0215,0.3612 0.0215,0.64843 0,0.77201 0.12272,1.41362 0.53321,2.19336 0.41048,0.77975 1.09882,1.70385 2.24023,3.12305 0.59646,0.74163 1.09075,1.30539 1.46875,1.67383 0.189,0.18422 0.3462,0.31997 0.48828,0.41015 0.071,0.0451 0.13679,0.0797 0.2168,0.0996 0.08,0.0199 0.1974,0.0202 0.29102,-0.0508 0.0965,-0.0732 0.49672,-0.39481 1.09765,-0.8789 0.60093,-0.4841 1.39036,-1.12084 2.22266,-1.79493 4.20203,-3.40329 8.56005,-6.2747 13.03515,-8.59179 1.15824,-0.59971 1.88928,-1.24652 2.22461,-1.92188 0.33534,-0.67536 0.22853,-1.38848 -0.24609,-1.94922 -0.94924,-1.12147 -3.21618,-1.78414 -6.41602,-1.66992 -1.25959,0.045 -1.92279,0.0252 -2.16601,-0.0879 -0.12161,-0.0566 -0.15679,-0.10362 -0.19531,-0.24023 -0.0385,-0.13662 -0.0508,-0.36241 -0.0508,-0.67383 0,-0.16218 0.0232,-0.25359 0.0723,-0.32227 0.049,-0.0687 0.14384,-0.13907 0.35352,-0.20898 0.41935,-0.13983 1.24842,-0.23834 2.68164,-0.34766 0.64627,-0.0493 1.33399,-0.0496 2.03711,-0.004 z M 67.802734,142.8418 c 11.660953,0.0435 17.292858,0.0525 20.083985,0.24023 1.395563,0.0939 2.075315,0.24008 2.414062,0.41992 0.338748,0.17984 0.395747,0.38715 0.601563,0.78516 0.02859,0.0553 0.13913,0.34696 0.277343,0.75781 0.138214,0.41085 0.315614,0.95952 0.517579,1.60742 0.40393,1.29582 0.909332,2.98615 1.419921,4.75391 3.111703,10.77332 5.162013,17.90773 6.433594,22.4082 0.635789,2.25024 1.077489,3.84126 1.359379,4.89844 0.14094,0.52859 0.24134,0.92404 0.30664,1.19922 0.0653,0.27518 0.0918,0.46683 0.0918,0.44726 0,0.079 -0.0476,0.23221 -0.13867,0.37891 -0.0911,0.14671 -0.22103,0.28944 -0.35156,0.38086 -0.0608,0.0426 -0.28709,0.12384 -0.888673,0.17773 -0.601584,0.0539 -1.571398,0.0927 -3.128906,0.11915 -3.115016,0.0529 -8.590008,0.0566 -18.273437,0.043 -6.004362,-0.008 -11.521354,-0.0312 -15.572266,-0.0605 -2.025456,-0.0147 -3.683805,-0.0316 -4.853516,-0.0488 -0.584855,-0.009 -1.047127,-0.0165 -1.371093,-0.0254 -0.161983,-0.004 -0.28959,-0.009 -0.378907,-0.0137 -0.04466,-0.002 -0.07989,-0.004 -0.103515,-0.006 -0.02362,-0.002 -0.04649,-0.009 -0.01758,-0.002 -0.945849,-0.24026 -1.570856,-0.83034 -1.945313,-1.86523 -0.09543,-0.26374 -0.596167,-1.90617 -1.296875,-4.26367 -0.700708,-2.3575 -1.612567,-5.45855 -2.566406,-8.73242 -1.907945,-6.54865 -4.130284,-14.14044 -4.9375,-16.87305 -0.65617,-2.22129 -1.01238,-3.48442 -1.166016,-4.25977 -0.153635,-0.77534 -0.115173,-1.02131 0.01758,-1.34179 0.209132,-0.50489 0.499425,-0.74704 1.140625,-0.9336 0.02812,-0.008 0.222052,-0.0372 0.50586,-0.0566 0.283808,-0.0194 0.674991,-0.0389 1.171875,-0.0547 0.993768,-0.0317 2.410506,-0.0558 4.261719,-0.0723 3.702426,-0.0329 9.138699,-0.0348 16.386718,-0.008 z m 23.623047,0.52929 c 0.0797,0.0194 0.156261,0.0234 0.248047,0.11133 0.136374,0.1306 0.294643,0.36774 0.470703,0.74219 0.352121,0.74889 0.772957,2.03699 1.367188,4.0918 0.673466,2.32879 1.935632,6.56603 2.802734,9.41992 0.865839,2.84972 2.088067,7.0778 2.714844,9.38672 0.628122,2.31388 1.658163,6.07598 2.289063,8.36328 0.41603,1.50836 0.68503,2.58291 0.82617,3.31836 0.0909,0.47389 0.10662,0.76233 0.10352,0.96484 -0.0696,-0.19502 -0.13268,-0.34267 -0.25586,-0.81836 -0.24197,-0.93441 -1.947,-6.9013 -3.802737,-13.30469 -1.855592,-6.40291 -4.00521,-13.82138 -4.777344,-16.48632 -0.386846,-1.33516 -0.786913,-2.62029 -1.11914,-3.61914 -0.166114,-0.49943 -0.31598,-0.92626 -0.439453,-1.25391 -0.123474,-0.32765 -0.205911,-0.5389 -0.296875,-0.67774 -0.09516,-0.14524 -0.09558,-0.16576 -0.13086,-0.23828 z m 22.226559,20.47852 c 0.0662,0.3218 0.13479,0.92678 0.22266,1.93945 l 0.17383,2.01172 -1.39649,0.61524 c -0.87483,0.3855 -2.04114,1.06704 -2.65039,1.55468 l -0.041,0.0332 c 0.35828,-0.59027 1.24069,-2.06193 2.10351,-3.51368 0.45383,-0.76358 0.87735,-1.47125 1.19336,-1.99414 0.15801,-0.26144 0.28827,-0.47571 0.38282,-0.6289 0.005,-0.008 0.007,-0.0103 0.0117,-0.0176 z m -13.63476,3.42578 c 0.0475,0.0298 0.0791,0.0427 0.14062,0.0918 0.23242,0.18582 0.54285,0.49917 0.8711,0.88086 0.65649,0.76337 1.39671,1.80662 1.86718,2.71093 0.61835,1.18854 0.96302,2.14555 1.04883,2.88477 0.0858,0.73922 -0.0697,1.24357 -0.45312,1.62695 -0.32893,0.32893 -0.60224,0.44756 -0.76563,0.4375 -0.16339,-0.0101 -0.30313,-0.11708 -0.43164,-0.45508 -0.55545,-1.46092 -0.81143,-2.9482 -0.6875,-3.5957 0.0276,-0.1441 0.0479,-0.26245 0.0586,-0.35937 0.0107,-0.0969 0.0197,-0.16299 -0.002,-0.25782 -0.0108,-0.0474 -0.0309,-0.1291 -0.13672,-0.18359 -0.10577,-0.0545 -0.21726,-0.0115 -0.26367,0.0195 -0.0798,0.0533 -0.10799,0.10463 -0.14648,0.16602 -0.10921,-0.26865 -0.28999,-0.87899 -0.68555,-2.2461 -0.1533,-0.52982 -0.28012,-1.02495 -0.35742,-1.39257 -0.0289,-0.13723 -0.0423,-0.23386 -0.0566,-0.32813 z m 17.5,0.66406 c 1.51486,-0.0109 3.33943,0.32297 6.03125,1.00586 1.15507,0.29303 2.23069,0.58437 3.03125,0.81836 0.40028,0.117 0.73297,0.21902 0.96875,0.29883 0.11789,0.0399 0.21181,0.0755 0.27539,0.10156 0.0191,0.008 0.0282,0.0117 0.041,0.0176 0.002,0.008 0.003,0.01 0.006,0.0195 0.0142,0.0558 0.0315,0.14268 0.0488,0.25195 0.0347,0.21856 0.0716,0.52872 0.10742,0.90235 0.0717,0.74726 0.13905,1.75199 0.18555,2.82812 l 0.1582,3.66016 -1.43359,-0.14258 c -1.29486,-0.12894 -2.26721,-0.47094 -4.54883,-1.61523 -1.7418,-0.87357 -2.66241,-1.34019 -3.54101,-1.24219 -0.4393,0.049 -0.83963,0.24727 -1.27539,0.57422 -0.43577,0.32695 -0.91699,0.78383 -1.54688,1.38867 -0.81076,0.77854 -1.4561,1.25411 -1.88281,1.42383 -0.21336,0.0849 -0.35993,0.091 -0.44727,0.0625 -0.0873,-0.0285 -0.15249,-0.0867 -0.21289,-0.24414 -0.0208,-0.0541 -0.0362,-0.19889 -0.0195,-0.35547 0.0166,-0.15658 0.0613,-0.32816 0.12109,-0.45899 0.26512,-0.5803 0.96344,-1.50087 1.75,-2.34375 0.78657,-0.84287 1.67174,-1.62336 2.27735,-1.9707 0.38494,-0.22077 0.67394,-0.40137 0.87109,-0.53711 0.0986,-0.0679 0.17411,-0.12257 0.23242,-0.17383 0.0292,-0.0256 0.0527,-0.0501 0.0781,-0.082 0.0254,-0.032 0.0785,-0.0661 0.0645,-0.19922 -0.007,-0.0665 -0.0596,-0.14518 -0.11133,-0.17773 -0.0517,-0.0325 -0.0902,-0.037 -0.11914,-0.0391 -0.0578,-0.004 -0.0908,0.005 -0.12695,0.0137 -0.0723,0.0173 -0.14929,0.0455 -0.25195,0.0879 -0.20532,0.0848 -0.49773,0.22482 -0.88477,0.42773 -1.40023,0.73412 -2.21581,1.50649 -3.93945,3.71094 -0.7765,0.99312 -1.30602,1.59535 -1.73047,1.93555 -0.42445,0.34019 -0.72377,0.42969 -1.15039,0.42969 -0.23929,0 -0.36612,-0.0506 -0.4082,-0.0918 -0.0421,-0.0412 -0.0707,-0.10733 -0.0293,-0.30664 0.0828,-0.39863 0.49515,-1.16537 1.25976,-2.29102 1.60097,-2.35688 2.80617,-3.56012 4.19141,-4.2207 0.25793,-0.12299 0.49172,-0.26187 0.66992,-0.39258 0.0891,-0.0653 0.16522,-0.12695 0.22657,-0.19336 0.0613,-0.0664 0.13085,-0.12663 0.13085,-0.27929 0,-0.0538 -0.0221,-0.1245 -0.0644,-0.17188 -0.0423,-0.0474 -0.0912,-0.0694 -0.1289,-0.0801 -0.0755,-0.0213 -0.12503,-0.0131 -0.17579,-0.006 -0.1015,0.0146 -0.20819,0.0484 -0.33984,0.0977 -0.2633,0.0984 -0.61008,0.26078 -0.99219,0.46875 -0.73172,0.39825 -1.31468,0.82461 -1.99023,1.54687 -0.67555,0.72227 -1.44804,1.73921 -2.59766,3.34571 -0.80211,1.12088 -1.36305,1.80234 -1.76953,2.13281 -0.20324,0.16524 -0.36092,0.23972 -0.48633,0.25977 -0.12541,0.02 -0.23049,-0.003 -0.36914,-0.082 -0.15698,-0.089 -0.24047,-0.16077 -0.27148,-0.21679 -0.031,-0.056 -0.0439,-0.12299 0.004,-0.29102 0.0956,-0.33605 0.46697,-0.97575 1.17579,-2.08203 1.72126,-2.68647 3.00428,-4.05502 4.64062,-4.97852 0.40552,-0.22885 0.72248,-0.4177 0.95313,-0.5664 0.11532,-0.0744 0.20932,-0.13941 0.2832,-0.19531 0.0739,-0.0559 0.12425,-0.0944 0.17578,-0.16407 0.0258,-0.0348 0.0756,-0.084 0.0547,-0.20703 -0.0105,-0.0615 -0.0552,-0.12672 -0.0996,-0.1582 -0.0444,-0.0315 -0.0807,-0.0402 -0.10938,-0.0449 -0.11464,-0.0187 -0.16165,0.006 -0.24609,0.0293 -0.16888,0.046 -0.41375,0.1375 -0.75781,0.28125 -1.02369,0.42772 -1.8459,0.95083 -2.70118,1.82032 -0.85527,0.86949 -1.74812,2.08135 -2.95117,3.90625 -0.42,0.63709 -0.7573,1.08915 -0.99609,1.34765 -0.0917,0.0992 -0.14882,0.14142 -0.20117,0.17969 -0.0279,-0.0607 -0.0628,-0.11713 -0.0469,-0.28125 0.0215,-0.22104 0.104,-0.52156 0.2461,-0.86914 0.28418,-0.69517 0.79973,-1.57804 1.48437,-2.48242 1.68561,-2.22664 2.57921,-2.95852 4.9707,-4.07617 1.51319,-0.7072 2.72529,-1.05354 4.24024,-1.06446 z m 18.66015,0.95508 c -0.07,-0.0298 -0.20238,-0.0183 -0.26953,0.0371 -0.0671,0.0555 -0.0842,0.11021 -0.0976,0.1543 -0.0537,0.17645 -0.0335,0.35329 0,0.64062 0.0335,0.28733 0.098,0.65801 0.19726,1.10547 0.17679,0.79669 0.33784,2.90279 0.3418,4.59375 0.002,0.97133 0.0258,1.71065 0.0684,2.18555 0.0213,0.23745 0.041,0.40114 0.084,0.53125 0.0108,0.0325 0.0229,0.0636 0.0449,0.0996 0.022,0.036 0.055,0.0857 0.13672,0.11718 0.0817,0.0315 0.19298,0.003 0.24414,-0.0352 0.0512,-0.0382 0.0718,-0.0733 0.0899,-0.10547 0.0871,-0.15557 0.0962,-0.30909 0.11914,-0.54688 0.0229,-0.23778 0.0384,-0.53913 0.0449,-0.88671 0.0131,-0.69516 -0.005,-1.57669 -0.043,-2.48047 -0.0385,-0.90379 -0.0979,-1.82835 -0.17383,-2.61133 -0.0759,-0.78298 -0.16191,-1.41072 -0.27343,-1.77344 -0.11907,-0.38725 -0.21564,-0.64424 -0.3086,-0.81055 -0.0465,-0.0832 -0.065,-0.15533 -0.20508,-0.21484 z m -30.08203,6.41211 c -0.13287,0.37741 -0.22366,0.70826 -0.21289,1.01367 0.0147,0.41681 0.1787,0.79318 0.46289,1.29883 l 0.39258,0.69727 h -1.71289 c -0.94134,0 -1.47069,-0.0204 -1.72851,-0.082 -0.12892,-0.0308 -0.17873,-0.0637 -0.20899,-0.0957 -0.0303,-0.032 -0.0567,-0.0831 -0.084,-0.1875 -0.0409,-0.15642 -0.0291,-0.22947 0.0254,-0.3164 0.0545,-0.0869 0.18427,-0.19811 0.42383,-0.32227 0.44575,-0.23105 1.32825,-0.9047 2.05859,-1.54688 0.28001,-0.24621 0.41699,-0.33563 0.58398,-0.45898 z m 12.93555,0.29102 c 0.0161,0 0.17713,0.0286 0.37695,0.0937 0.19983,0.0651 0.45544,0.16164 0.74805,0.28125 0.58521,0.2392 1.314,0.57251 2.03906,0.9375 1.31561,0.66224 2.2966,1.06333 3.19727,1.3125 -0.868,0.0242 -1.7753,0.0468 -3.61524,0.0547 l -6.04687,0.0254 1.2207,-1.1875 c 0.51264,-0.49852 0.96734,-0.88765 1.33399,-1.14648 0.36664,-0.25883 0.66326,-0.37109 0.74609,-0.37109 z m 5.58008,3.52539 c 1.72698,0.005 3.03329,0.0336 4.01367,0.0937 0.98038,0.0602 1.63572,0.15266 2.04102,0.27148 0.4053,0.11882 0.52909,0.24217 0.57226,0.35938 0.10881,0.2954 0.0644,0.60094 -0.15625,0.91601 l -0.32422,0.46289 h -14.16797 -13.84961 l 0.16016,-0.22851 c 0.26109,-0.37274 0.45313,-0.90542 0.45313,-1.32227 0,-0.14443 0.0146,-0.2151 0.0215,-0.22656 0.007,-0.0115 0.0261,-0.0398 0.1875,-0.0723 0.3228,-0.065 1.07841,-0.0738 2.53906,-0.0723 1.64297,0.002 7.0282,-0.0563 11.97657,-0.12891 2.65974,-0.039 4.80622,-0.0577 6.5332,-0.0527 z m -96.308596,3.08984 h 54.552735 54.246091 l -0.36719,0.62109 c -0.74887,1.26926 -0.79872,3.17868 -0.11718,4.48047 l 0.27539,0.52539 H 82.738281 28.302734 l -0.707031,-0.70703 c -0.328446,-0.32844 -0.489955,-0.53504 -0.583984,-0.81054 -0.09403,-0.27551 -0.123047,-0.65055 -0.123047,-1.29493 0,-0.64437 0.02897,-1.02082 0.123047,-1.29687 0.09407,-0.27606 0.255616,-0.48218 0.583984,-0.81055 z m 139.601566,0.0606 28.82422,0.0703 0.54492,0.63281 c 1.1745,1.36553 0.96431,3.52947 -0.41016,4.49219 -0.0437,0.0306 -0.32566,0.12468 -1.09375,0.17969 -0.76809,0.055 -2.02383,0.0932 -4.07031,0.12109 -4.09296,0.0559 -11.35332,0.066 -24.27344,0.0625 -9.59532,-0.003 -16.87904,-0.0279 -21.80078,-0.0742 -2.46087,-0.0232 -4.33088,-0.0521 -5.60352,-0.0859 -0.63632,-0.0169 -1.1228,-0.0353 -1.45703,-0.0547 -0.16711,-0.01 -0.29757,-0.0196 -0.38476,-0.0293 -0.0419,-0.005 -0.0726,-0.0101 -0.0918,-0.0137 -0.25307,-0.15337 -0.55248,-0.52567 -0.76953,-0.98047 -0.22034,-0.4617 -0.36328,-1.00151 -0.36328,-1.44727 0,-0.55284 0.17017,-1.15703 0.43554,-1.65234 0.26538,-0.49531 0.62975,-0.87518 0.96485,-1.01367 -0.019,0.008 0.0415,-0.0104 0.1289,-0.0215 0.0874,-0.0111 0.2121,-0.0225 0.36915,-0.0332 0.31409,-0.0214 0.76271,-0.0412 1.35351,-0.0586 1.18161,-0.0347 2.92851,-0.06 5.30664,-0.0781 4.75627,-0.0362 12.03965,-0.0407 22.39063,-0.0156 z" /><path
         style="display:none;fill:#f4f3ed"
         d="M -0.59129095,115.57325 V -19.893414 H 134.87537 270.34203 V 115.57325 251.03991 H 134.87537 -0.59129095 Z M 197.79774,187.84976 c 1.42058,-1.32702 1.44681,-3.85803 0.0561,-5.41478 l -0.75771,-0.8482 -15.74612,-0.13229 -15.74611,-0.13229 1.10604,-0.52512 c 1.59652,-0.75799 4.19566,-3.44351 4.99732,-5.16342 1.22715,-2.63276 1.56167,-5.48417 0.96811,-8.25187 -0.16499,-0.76931 -0.86199,-2.76947 -1.5489,-4.44479 -2.5061,-6.11224 -11.46703,-25.83643 -12.32235,-27.12313 -0.48366,-0.7276 -1.40687,-1.83881 -2.05157,-2.46935 l -1.17218,-1.14643 0.49541,-1.3038 c 0.61673,-1.62312 0.6576,-4.79757 0.0898,-6.97742 -0.58124,-2.23151 -1.61333,-3.99196 -3.43088,-5.85207 -2.52825,-2.58747 -5.73455,-3.95363 -9.99286,-4.25783 -2.12586,-0.15187 -2.28718,-0.20194 -1.92832,-0.59847 0.58789,-0.64961 1.20556,-2.27769 1.20556,-3.17765 0,-0.43829 -0.1976,-1.29075 -0.43912,-1.89436 -0.41448,-1.03588 -0.41089,-1.20321 0.0639,-2.98191 0.73384,-2.74946 0.69561,-6.799192 -0.078,-8.259509 -0.8143,-1.537153 -2.17353,-2.632249 -3.73086,-3.005845 -1.24511,-0.298699 -1.37596,-0.4111 -2.02658,-1.740918 -0.74589,-1.524558 -1.68038,-2.44837 -3.4158,-3.37677 -0.9273,-0.49608 -1.50198,-0.581648 -3.86727,-0.575818 -2.63223,0.0065 -2.92763,0.06554 -5.62489,1.124479 -3.25804,1.279097 -4.70182,1.403497 -6.54594,0.564013 -3.56743,-1.623968 -6.77795,-0.278321 -8.08641,3.389315 -1.22019,3.4202 0.54875,7.175853 4.19159,8.899193 l 1.50253,0.71081 -0.0964,1.59931 c -0.0908,1.50634 -0.14814,1.62682 -0.98667,2.07227 -2.91523,1.54864 -2.73987,5.76691 0.30087,7.23745 1.16747,0.5646 1.23295,0.65682 1.51724,2.13689 0.413,2.15007 1.53425,4.30852 2.99907,5.77335 l 1.24151,1.24151 -0.67018,1.35419 c -0.69406,1.40243 -0.89287,3.17564 -0.51982,4.6362 0.19669,0.77012 0.14997,0.82095 -1.56888,1.70716 -2.08132,1.07309 -4.70432,3.43988 -6.30445,5.68866 -0.62618,0.88001 -3.452,5.35049 -6.2796,9.93439 -2.82761,4.58391 -5.492033,8.89542 -5.92095,9.58114 l -0.779848,1.24676 -1.845338,-6.53843 c -1.611259,-5.70903 -1.951059,-6.6475 -2.678776,-7.39832 l -0.833437,-0.8599 -22.582186,-0.0411 c -12.420203,-0.0226 -22.879843,-0.0175 -23.243645,0.0114 -0.363802,0.0289 -0.958133,0.2679 -1.320736,0.5311 -1.390238,1.00914 -1.392605,0.99642 2.910839,15.63824 2.20269,7.49433 4.527082,15.40591 5.165316,17.5813 0.638234,2.1754 1.404652,4.2856 1.703152,4.68934 l 0.542727,0.73408 -13.490633,0.0732 -13.490633,0.0732 -0.697328,0.6975 c -1.364926,1.36524 -1.297931,4.29779 0.127277,5.57121 l 0.831285,0.74275 h 84.502214 84.50222 z m -94.77635,-9.7242 c -0.22259,-0.58005 -0.25451,-0.52861 0.69929,-1.12729 0.47295,-0.29685 1.17034,-0.78243 1.54978,-1.07905 l 0.68988,-0.53932 -0.12314,0.64414 c -0.0772,0.40399 0.0848,0.90849 0.4346,1.35319 0.30676,0.38997 0.55774,0.81205 0.55774,0.93794 0,0.1259 -0.8207,0.22891 -1.82378,0.22891 -1.41897,0 -1.85942,-0.0929 -1.98437,-0.41852 z m 6.98315,-8.18192 c 0,-0.0648 0.81684,-1.49855 1.81519,-3.1861 1.76468,-2.98288 1.81991,-3.04473 1.98438,-2.22238 0.0931,0.46524 0.16918,1.40824 0.16918,2.09556 0,1.21323 -0.0326,1.26432 -1.11785,1.75286 -0.61481,0.27676 -1.50778,0.76751 -1.98437,1.09054 -0.47659,0.32304 -0.86653,0.53432 -0.86653,0.46952 z m -39.052218,-4.33581 c -1.515344,-0.69282 -2.30352,-1.89908 -2.435802,-3.72785 -0.09443,-1.30553 -0.02264,-1.58593 0.593583,-2.31827 0.385556,-0.4582 0.933906,-0.90702 1.218556,-0.99736 0.316917,-0.10059 0.517546,-0.40121 0.517546,-0.7755 0,-0.74402 0.634386,-1.32296 1.208326,-1.10272 0.309731,0.11886 0.377207,0.3625 0.254773,0.91994 -0.148156,0.67455 -0.08399,0.77477 0.581265,0.90782 3.052611,0.61052 4.095717,5.54863 1.456887,6.89697 -1.306716,0.66768 -2.24637,0.72219 -3.395134,0.19697 z m 60.482588,-13.04345 c -4.9e-4,-0.62705 -0.24555,-2.33072 -0.54458,-3.78593 -0.90263,-4.39254 -0.98453,-15.63188 -0.116,-15.91963 0.17181,-0.0569 0.26458,2.3013 0.26458,6.72536 0,5.52027 0.0879,7.20747 0.46302,8.89184 0.51089,2.29374 0.60951,4.81088 0.19844,5.06493 -0.16071,0.0993 -0.26493,-0.28407 -0.26546,-0.97657 z m -6.747,-0.21567 c -0.21937,-0.35495 -0.22575,-18.68149 -0.007,-19.03605 0.0941,-0.1523 0.25341,-0.27686 0.35396,-0.2768 0.10056,7e-5 0.18784,4.40538 0.19396,9.78959 0.006,5.3842 -0.0761,9.78946 -0.18282,9.78946 -0.10668,0 -0.26799,-0.11979 -0.35848,-0.2662 z m -12.15517,-39.75203 c -1.12896,-1.13083 -1.40538,-2.53082 -0.75702,-3.83411 0.44435,-0.89319 1.79567,-2.16234 2.02604,-1.90285 0.0559,0.063 0.18413,1.57308 0.28485,3.35571 0.16483,2.9172 0.13923,3.24115 -0.25614,3.24115 -0.24159,0 -0.82558,-0.38695 -1.29773,-0.8599 z"
         id="path40" /><path
         style="display:inline;fill:#8a8a8a;fill-opacity:1"
         d="m 28.109586,187.69973 c -2.092286,-0.91161 -1.904855,-4.73339 0.267296,-5.45027 0.698834,-0.23063 14.405219,-0.28571 54.866907,-0.22047 l 53.935361,0.087 -0.52236,1.0022 c -0.64957,1.24623 -0.54354,3.59689 0.19924,4.41766 l 0.4826,0.53327 -54.214439,-0.0104 c -44.257485,-0.008 -54.361399,-0.0744 -55.014605,-0.35899 z m 27.472357,-6.51236 c -0.883388,-0.35583 -1.285564,-1.17002 -2.285876,-4.62767 -0.505197,-1.74625 -2.775744,-9.49755 -5.045659,-17.2251 -2.269915,-7.72756 -4.127118,-14.36529 -4.127118,-14.75052 0,-0.38523 0.238125,-0.93854 0.529167,-1.22959 0.520659,-0.52065 0.881944,-0.52916 22.472358,-0.52916 13.305007,0 22.204915,0.0995 22.608036,0.25277 1.324349,0.50352 0.758368,-1.18953 7.980837,23.87354 1.957779,6.79379 3.559602,12.69334 3.559602,13.1101 0,0.41676 -0.14288,0.90063 -0.3175,1.07525 -0.38331,0.38331 -44.42591,0.43221 -45.373847,0.0504 z m 18.765513,-15.77651 c 2.63883,-1.34834 1.595724,-6.28645 -1.456887,-6.89697 -0.665255,-0.13305 -0.729421,-0.23327 -0.581265,-0.90782 0.122434,-0.55744 0.05496,-0.80108 -0.254773,-0.91994 -0.57394,-0.22024 -1.208326,0.3587 -1.208326,1.10272 0,0.37429 -0.200629,0.67491 -0.517546,0.7755 -0.28465,0.0903 -0.833,0.53916 -1.218556,0.99736 -0.616223,0.73234 -0.688016,1.01274 -0.593583,2.31827 0.236998,3.27646 3.024894,4.96465 5.830936,3.53088 z"
         id="path38" /><path
         style="display:inline;fill:url(#linearGradient51);fill-opacity:1"
         d="m 138.71183,181.18635 c -5.29681,-0.24216 -6.48229,-0.43588 -6.48229,-1.05928 0,-0.85342 -0.87831,-1.6092 -2.05323,-1.76679 l -1.12177,-0.15046 -0.005,-1.7511 c -0.003,-0.96311 -0.12145,-2.86051 -0.26428,-4.21646 -0.15849,-1.50455 -0.1651,-2.64211 -0.017,-2.9189 0.36787,-0.68737 2.30505,-1.54076 4.51917,-1.99085 1.0914,-0.22187 5.97297,-0.94989 10.84791,-1.61784 10.00029,-1.37019 13.50508,-1.91039 13.70741,-2.11273 0.46637,-0.46636 -0.65358,-0.40211 -4.62541,0.26538 l -0.83989,0.14114 -3.89689,-7.615 c -4.28426,-8.37195 -4.02165,-7.89447 -4.22824,-7.68789 -0.0812,0.0812 1.52617,3.49349 3.57188,7.5829 2.04571,4.08941 3.71948,7.53351 3.71948,7.65355 0,0.12005 -2.53008,0.54975 -5.6224,0.95489 -8.22831,1.07805 -13.65137,1.95168 -15.10539,2.43343 -0.70451,0.23341 -1.67165,0.76746 -2.14922,1.18676 l -0.86829,0.76238 -3.80391,-0.98121 c -3.16019,-0.81515 -4.26482,-0.9827 -6.52746,-0.99009 -2.50793,-0.008 -2.73197,-0.0508 -2.83006,-0.53806 -0.0586,-0.29104 -0.3543,-3.62479 -0.65714,-7.40833 -0.82385,-10.29298 -1.11659,-13.09688 -1.36735,-13.09688 -0.30388,0 -0.31137,-0.15049 0.42667,8.57543 l 0.64697,7.6494 -2.19646,3.5954 c -1.20805,1.97747 -2.49959,4.12738 -2.8701,4.77758 -0.69883,1.22639 -3.5485,4.62565 -4.07534,4.86131 -0.18351,0.0821 -0.14474,-0.17786 0.0996,-0.66761 0.50442,-1.01115 0.2553,-1.90774 -1.34672,-4.84672 -0.83443,-1.5308 -1.51225,-2.38933 -2.44889,-3.10177 -1.047111,-0.79647 -1.378101,-1.25246 -1.728485,-2.38125 -0.238353,-0.76788 -0.39902,-1.43392 -0.357037,-1.48008 0.198851,-0.21865 2.863812,1.38123 3.709622,2.22704 0.92434,0.92434 1.39626,1.04628 1.10425,0.28532 -0.25295,-0.65917 -2.50119,-2.32184 -3.8107,-2.81817 l -1.271098,-0.48178 -0.632793,-2.21007 -0.632793,-2.21007 0.727487,-1.32292 c 0.400118,-0.7276 1.475965,-2.51354 2.390767,-3.96875 0.91481,-1.45521 3.29828,-5.32474 5.29661,-8.59896 1.99832,-3.27421 4.14682,-6.67872 4.77442,-7.56556 1.46729,-2.07335 3.64846,-4.05855 5.98316,-5.44556 l 1.85159,-1.10002 1.01797,1.19092 c 1.07408,1.25656 4.51725,4.18897 4.9186,4.18897 0.13084,0 0.19294,1.44502 0.13929,3.24115 -0.0533,1.78263 -0.0108,5.65216 0.0943,8.59896 0.15083,4.22899 0.2664,5.35781 0.54852,5.35781 0.29357,0 0.34745,-1.43772 0.30162,-8.04722 -0.0307,-4.42596 0.0152,-8.11846 0.10201,-8.20555 0.0868,-0.0871 0.58899,0.0218 1.11598,0.24201 0.52699,0.22019 1.55731,0.40034 2.28958,0.40034 h 1.33142 v 3.81017 c 0,2.64731 0.16569,4.76701 0.5429,6.94531 0.2986,1.72433 0.56649,3.72068 0.59532,4.43633 0.0299,0.74276 0.19015,1.34697 0.37337,1.40786 0.63293,0.21035 0.65746,-1.32834 0.0739,-4.63682 -0.38826,-2.20133 -0.63864,-4.92167 -0.72446,-7.87136 l -0.13114,-4.50747 5.34465,-2.58223 c 7.15555,-3.45716 9.51319,-4.24111 12.31002,-4.09328 1.71465,0.0906 2.45375,0.27627 3.86065,0.96967 3.02278,1.48981 5.42215,3.97309 7.09243,7.3405 1.77567,3.57989 11.70241,26.19596 12.21525,27.82997 0.75877,2.41765 0.76119,5.71996 0.006,7.87207 -1.12863,3.2153 -3.30554,5.53826 -6.36907,6.79639 -1.42149,0.58378 -1.69734,0.59833 -11.90625,0.62796 -5.74807,0.0167 -12.35604,-0.0568 -14.68437,-0.16321 z m -1.60561,-5.74625 c 0.0177,-2.7842 -0.47552,-6.02149 -0.96333,-6.32297 -0.4327,-0.26742 -0.4415,0.008 -0.052,1.62392 0.23067,0.95705 0.37155,2.79116 0.3555,4.62803 -0.0328,3.75775 -0.0479,3.60976 0.32905,3.23279 0.19923,-0.19922 0.31919,-1.34607 0.33073,-3.16177 z m -17.39561,2.90366 -4.18455,-0.0779 1.11199,-1.16675 c 1.90118,-1.99482 2.21142,-2.02203 5.35117,-0.46942 1.48483,0.73425 2.99124,1.44492 3.34758,1.57925 0.73523,0.27717 1.29837,0.26368 -5.62619,0.1348 z m 6.69809,-42.33885 c -0.84012,-0.4152 -0.93352,-0.57418 -1.00668,-1.71342 -0.0566,-0.88147 -0.19461,-1.25574 -0.46302,-1.25574 -0.34091,0 -0.49606,0.60915 -0.45401,1.78262 0.0285,0.79461 -4.39345,-3.15845 -5.5296,-4.94328 -0.94727,-1.48812 -1.01292,-3.40325 -0.18281,-5.33289 0.31127,-0.72359 0.6387,-1.28025 0.7276,-1.23704 0.0889,0.0432 0.90579,0.36123 1.81529,0.7067 l 1.65365,0.62812 v 1.35834 c 0,1.03366 0.16918,1.61018 0.7078,2.41194 0.85204,1.26832 3.77451,4.89007 3.94589,4.89007 0.067,0 1.45832,-1.09922 3.09186,-2.4427 3.88949,-3.19886 7.66212,-5.81892 10.91913,-7.58324 4.98844,-2.70224 5.54327,-3.25854 4.76021,-4.7728 -0.61539,-1.19004 -2.17957,-1.68419 -5.73829,-1.8128 l -3.08319,-0.11143 -0.1376,-0.7005 c -0.0757,-0.38527 -0.0386,-0.80274 0.0825,-0.92771 0.12105,-0.12498 1.15888,-0.35117 2.30628,-0.50266 1.66187,-0.21941 2.58399,-0.19149 4.53374,0.13726 7.11158,1.19911 11.68458,6.24944 11.68458,12.9042 0,1.77778 -0.63553,4.22488 -1.09724,4.22488 -0.13956,0 -0.69032,-0.29666 -1.2239,-0.65924 -0.53359,-0.36258 -1.7361,-0.91413 -2.67225,-1.22566 -3.37477,-1.12305 -7.1202,-0.26129 -14.14472,3.25445 -1.72195,0.86183 -3.7634,1.84672 -4.53655,2.18865 l -1.40572,0.62168 0.14152,-1.56078 c 0.11634,-1.28296 0.0699,-1.56077 -0.26116,-1.56077 -0.29809,0 -0.46225,0.46386 -0.63206,1.78594 l -0.22937,1.78594 -1.32292,0.0598 c -0.82921,0.0375 -1.66851,-0.11103 -2.24896,-0.3979 z"
         id="path37" /><path
         style="display:inline;fill:#575757;fill-opacity:1"
         d="m 137.98422,187.7833 c -0.65,-0.37859 -1.25677,-1.65206 -1.25677,-2.63766 0,-1.19722 0.71709,-2.53697 1.53992,-2.87703 0.50742,-0.20972 8.93512,-0.27309 29.63771,-0.22285 l 28.92868,0.0702 0.61267,0.71232 c 0.83772,0.97396 1.08425,2.58548 0.55277,3.61325 -0.90411,1.74836 1.36099,1.62838 -30.57281,1.61951 -19.19136,-0.005 -29.13554,-0.0991 -29.44217,-0.27773 z M 33.010791,181.52785 c 11.852422,-0.18416 21.960664,-0.18748 21.960545,-0.007 -7.1e-5,0.10914 -5.98302,0.1716 -13.295442,0.1388 -7.312421,-0.0328 -11.211718,-0.092 -8.665103,-0.13159 z m 34.461977,-0.007 c 6.075494,-0.0396 16.017213,-0.0396 22.092707,0 6.075495,0.0396 1.104636,0.072 -11.046353,0.072 -12.150989,0 -17.121849,-0.0324 -11.046354,-0.072 z m 97.565002,-8e-5 c -9e-5,-0.18013 11.44836,-0.17739 25.79697,0.006 3.05594,0.0391 -1.4982,0.0983 -10.12031,0.13168 -8.62211,0.0333 -15.67661,-0.0287 -15.67666,-0.13784 z m -62.32428,-0.65419 c 0.22654,-0.32342 0.41188,-0.8592 0.41188,-1.19062 0,-0.59152 0.0547,-0.60254 2.97656,-0.59983 1.63711,0.002 7.02469,-0.0566 11.9724,-0.12917 10.64162,-0.15607 13.0727,-0.006 13.37837,0.82346 0.13523,0.36717 0.0709,0.76057 -0.18404,1.12448 l -0.39205,0.55972 h -14.2875 -14.2875 z m -0.94251,-1.85886 c -0.23559,-0.90978 -1.946566,-6.89289 -3.80216,-13.2958 -1.855594,-6.40292 -4.005556,-13.82208 -4.777693,-16.48703 -0.772138,-2.66495 -1.593989,-5.1355 -1.826337,-5.49011 -0.338093,-0.51599 -0.350171,-0.64474 -0.06048,-0.64474 0.746102,0 1.238435,1.04648 2.42869,5.16229 0.672871,2.32673 1.932538,6.56439 2.799261,9.41703 0.866723,2.85263 2.089663,7.07935 2.717643,9.3927 0.627981,2.31336 1.657856,6.07715 2.288626,8.36399 0.83343,3.02163 1.08043,4.30518 0.90382,4.69685 -0.20302,0.45023 -0.31354,0.26666 -0.67137,-1.11518 z M 56.360269,142.62697 c 5.929973,-0.0397 15.633566,-0.0397 21.56354,0 5.929974,0.0397 1.078177,0.0722 -10.78177,0.0722 -11.859947,0 -16.711744,-0.0325 -10.78177,-0.0722 z"
         id="path36" /><path
         style="fill:#353962;fill-opacity:1;stroke-width:0.0149271"
         d="m 518.23023,751.53336 c -0.18935,-0.17688 -0.27433,-0.78133 -0.31862,-2.26639 -0.008,-0.27093 -0.014,-0.68068 -0.0132,-0.91056 l 10e-4,-0.41796 0.028,0.20152 c 0.14825,1.06639 0.36704,1.56849 0.77743,1.78415 0.24419,0.12832 0.51569,0.14384 0.80714,0.0461 0.0554,-0.0186 0.10076,-0.0315 0.10076,-0.0287 0,0.0432 -0.17203,0.50581 -0.2387,0.64186 -0.0849,0.17329 -0.0991,0.19244 -0.29747,0.40209 -0.24268,0.25648 -0.46076,0.45892 -0.56957,0.52874 -0.0541,0.0347 -0.0998,0.0512 -0.15403,0.0557 -0.0689,0.006 -0.0821,0.002 -0.12317,-0.0366 z"
         id="path46"
         transform="matrix(0.26458333,0,0,0.26458333,-0.59129101,-20.072147)" /><path
         style="fill:#353962;fill-opacity:1;stroke-width:0.0149271"
         d="m 491.14163,749.77822 c -0.0121,-0.0453 -0.0119,-0.20525 3.1e-4,-0.20525 0.0134,0 1.66039,0.22034 1.7069,0.22834 0.0205,0.004 -0.35318,0.007 -0.83045,0.008 l -0.86776,0.002 z"
         id="path47"
         transform="matrix(0.26458333,0,0,0.26458333,-0.59129101,-20.072147)" /><path
         style="fill:#353962;fill-opacity:1;stroke-width:0.00390625"
         d="m 439.70617,749.70235 0.0614,-0.0594 0.0293,4e-5 c 0.0161,2e-5 1.1754,0.0217 2.57618,0.0481 1.40078,0.0265 2.51259,0.0483 2.4707,0.0486 -0.0706,4.4e-4 -4.43068,0.0189 -4.9618,0.021 l -0.23719,9.5e-4 z"
         id="path48"
         transform="matrix(0.26458333,0,0,0.26458333,-0.59129101,-20.072147)" /></g></g></svg>
